<svg xmlns="http://www.w3.org/2000/svg" width="14.002" height="16.001" viewBox="0 0 14.002 16.001"><g transform="translate(-252 -377)"><path d="M1,11.5C1,11.776,1,11.224,1,11.5Zm14-7a.5.5,0,0,1-.5.5H2.707L5.854,8.146a.5.5,0,0,1-.708.708l-4-4a.5.5,0,0,1,0-.708l4-4a.5.5,0,1,1,.708.708L2.707,4H14.5A.5.5,0,0,1,15,4.5Z" transform="translate(251.001 377.001)" fill-rule="evenodd"/><path d="M1,11.5a.5.5,0,0,0,.5.5H13.293l-3.147,3.146a.5.5,0,0,0,.708.708l4-4a.5.5,0,0,0,0-.708l-4-4a.5.5,0,1,0-.708.708L13.293,11H1.5A.5.5,0,0,0,1,11.5Z" transform="translate(251.001 377.001)" fill="#00ab67" fill-rule="evenodd"/></g></svg>