<svg id="MOI_Logo" data-name="MOI Logo" xmlns="http://www.w3.org/2000/svg" width="120" height="120" viewBox="0 0 120 120">
  <g id="MOI_Logo-2" data-name="MOI Logo">
    <g id="Group_35" data-name="Group 35">
      <path id="Path_3283" data-name="Path 3283" d="M131.72,87.428c-.215.162-1.784,1.245-3.466,2.4q.2-1.312.325-2.648c1.7-1.823,3.932-4.2,4.178-4.448.67-.911-.476-1.714-1.339-.823-.347.359-1.46,1.533-2.665,2.8.034-.743.054-1.49.054-2.241,0-.382-.015-.76-.023-1.14,1.383-1.512,2.881-3.149,3.274-3.583.772-.857-.044-1.872-.85-1.192-.155.18-1.3,1.437-2.511,2.772-.062-.973-.145-1.939-.264-2.9,1.307-1.376,2.72-2.864,3.092-3.258.737-.779,0-1.739-.761-1.124-.158.172-1.351,1.464-2.562,2.774-.156-.978-.344-1.943-.556-2.9,1.272-1.447,2.79-3.178,2.959-3.377.48-.768-.485-1.338-1.119-.574-.274.33-1.2,1.436-2.158,2.59-.219-.867-.467-1.721-.733-2.569.92-1.443,2-3.137,2.274-3.558.5-.768-.269-1.464-.814-.83-.117.187-1.019,1.731-1.857,3.162-.239-.7-.5-1.392-.769-2.078.836-1.558,1.882-3.506,2.137-3.972.44-.8-.376-1.44-.873-.766-.11.206-.984,2-1.742,3.555-.411-.965-.859-1.911-1.331-2.842.753-1.295,1.579-2.715,1.8-3.087.438-.725-.295-1.342-.777-.74-.1.173-.821,1.579-1.5,2.909-.382-.72-.787-1.426-1.205-2.124.6-1.254,1.276-2.65,1.46-3.014.356-.7-.359-1.221-.765-.631-.084.17-.644,1.587-1.155,2.885q-.588-.942-1.215-1.852c.468-1.276,1.045-2.845,1.2-3.231.269-.676-.436-1.1-.762-.52-.071.186-.511,1.839-.858,3.161-.513-.72-1.04-1.427-1.589-2.115.337-1.216.754-2.718.869-3.093.2-.652-.486-1-.751-.43-.053.183-.311,1.8-.506,3.046q-.89-1.092-1.847-2.127c.22-1.212.486-2.644.566-3.013.143-.668-.575-.949-.787-.362-.035.179-.14,1.668-.22,2.892-.669-.707-1.362-1.389-2.074-2.055.051-1.081.107-2.251.132-2.578.05-.649-.664-.822-.79-.241-.009.159.086,1.313.178,2.363-.789-.721-1.607-1.411-2.445-2.08.007-1.162.017-2.743.03-3.131.02-.633-.682-.769-.778-.2,0,.2.243,1.99.39,3.039q-1.412-1.107-2.909-2.108c0-1-.012-2.634-.041-2.831-.167-.552-.843-.327-.742.3.047.3.195,1.281.335,2.236-.835-.548-1.69-1.063-2.559-1.559-.1-1.158-.244-2.932-.28-3.356-.055-.642-.78-.7-.81-.11.025.246.5,2.49.658,3.214-.739-.41-1.491-.8-2.252-1.169-.156-1.19-.374-2.825-.435-3.237-.1-.666-.859-.675-.851-.061.039.234.471,2.124.675,3.006a47.931,47.931,0,0,0-6-2.361l-.892.1.9.532a46.131,46.131,0,0,1,6.01,2.747h-.036s-3.135.8-3.429.892c-.549.274-.192.945.443.728.461-.157,2.517-.9,3.613-1.29.017.009.03.018.048.027l.128.215s-.008-.056-.02-.152c.861.491,1.71,1,2.535,1.549h-.246s-3.147.683-3.427.776c-.523.27-.174.909.433.693l3.549-1.259c.855.573,1.692,1.169,2.5,1.8.031.215.051.345.051.345l.041-.274c.157.122.311.251.468.376-.84-.1-3.544-.417-4.071-.488-.625-.085-.831.6-.275.751.288.033,3.615-.059,3.615-.059l.806-.143q1.2.964,2.343,2l-.088-.019s-3.538-.222-3.827-.194c-.561.141-.37.83.259.759.481-.054,2.81-.253,3.873-.342,1.111,1.028,2.176,2.105,3.181,3.238-.477-.037-3.8-.294-4.081-.274-.58.133-.4.845.25.786.5-.045,2.938-.187,4.055-.251q.953,1.09,1.839,2.236c-1.255-.169-3.352-.446-3.571-.446-.617.093-.483.852.2.843.445-.007,2.4.026,3.706.05q.789,1.052,1.519,2.148c-1.387.021-3.221.053-3.425.079-.64.179-.4.965.322.864.415-.058,2.106-.246,3.464-.4q.9,1.386,1.7,2.838c-1.547-.087-3.827-.212-4.062-.206-.7.124-.529.992.254.959.489-.02,2.628-.059,4.159-.086q.816,1.551,1.519,3.171c-1.661-.3-3.937-.716-4.179-.746-.771.02-.723.975.118,1.068.521.056,2.783.338,4.435.547q.64,1.561,1.166,3.179c-1.7-.536-3.781-1.186-4.016-1.25-.832-.1-.932.929-.044,1.161.518.135,2.682.722,4.394,1.186q.433,1.452.771,2.94c-1.668-.63-3.437-1.3-3.657-1.378-.888-.178-1.082.925-.144,1.249.49.169,2.385.831,4.082,1.423q.344,1.75.555,3.547c-1.783-.869-3.743-1.827-3.977-1.943-.932-.3-1.271.865-.3,1.325.525.249,2.618,1.236,4.427,2.09.11,1.3.171,2.623.171,3.957,0,.133,0,.266,0,.4-1.7-1.314-3.592-2.77-3.814-2.949-.91-.53-1.537.612-.626,1.321.513.4,2.638,2.028,4.393,3.373q-.084,1.861-.312,3.679c-1.513-1.718-3.164-3.6-3.356-3.833-.842-.756-1.752.306-.949,1.251.462.544,2.421,2.8,4,4.614q-.233,1.37-.546,2.709c-1.535-1.67-3.079-3.357-3.27-3.585-.908-.8-1.87.348-1,1.351.444.513,2.175,2.449,3.761,4.221-.326,1.159-.7,2.3-1.108,3.42-1.443-2.1-3.119-4.557-3.3-4.849-.786-.92-1.9.08-1.185,1.2.421.659,2.268,3.434,3.713,5.6q-.714,1.7-1.557,3.32c-1.068-2.289-2.29-4.913-2.419-5.224-.625-1.038-1.889-.233-1.363.986.311.717,1.677,3.75,2.748,6.125q-1.021,1.766-2.193,3.427c-.7-2.529-1.565-5.669-1.644-6.018-.443-1.127-1.824-.544-1.508.744.2.816,1.16,4.477,1.836,7.053q-1.141,1.473-2.4,2.846c-.323-2.8-.729-6.336-.752-6.722-.27-1.265-1.824-.893-1.716.519.068.919.472,5.148.745,7.986q-1.218,1.2-2.524,2.305c-.077-3-.17-6.831-.154-7.246-.152-1.366-1.838-1.133-1.874.372-.021.979-.02,5.482-.017,8.513q-1.635,1.237-3.381,2.325c.124-3.153.287-7.095.334-7.526-.056-1.458-1.859-1.341-2.01.25-.094.993-.407,5.432-.626,8.626q-1.969,1.078-4.05,1.963c.81-3.293,1.9-7.693,2.055-8.149.26-1.521-1.63-1.8-2.136-.185-.338,1.073-1.774,6.137-2.7,9.411a46.092,46.092,0,0,1-13.843,2.576A46.1,46.1,0,0,1,66.546,123.9c-.924-3.274-2.362-8.338-2.7-9.411-.507-1.613-2.4-1.337-2.134.185.151.456,1.242,4.856,2.054,8.149q-2.079-.883-4.05-1.963c-.22-3.195-.532-7.633-.627-8.626-.152-1.591-1.953-1.708-2.01-.25.049.432.21,4.374.333,7.526q-1.741-1.089-3.38-2.325c0-3.031,0-7.535-.019-8.513-.034-1.5-1.719-1.738-1.873-.372.017.416-.077,4.247-.154,7.246q-1.3-1.106-2.524-2.305c.274-2.838.677-7.067.746-7.986.107-1.412-1.449-1.784-1.718-.519-.022.386-.427,3.923-.752,6.722q-1.254-1.375-2.4-2.846c.677-2.576,1.637-6.237,1.837-7.053.316-1.289-1.064-1.872-1.508-.744-.08.349-.944,3.489-1.645,6.018q-1.168-1.659-2.193-3.427C42.9,101.034,44.271,98,44.58,97.284c.525-1.219-.739-2.023-1.363-.986-.128.312-1.35,2.936-2.418,5.224q-.841-1.626-1.558-3.32c1.445-2.168,3.292-4.944,3.714-5.6.718-1.116-.4-2.116-1.184-1.2-.18.293-1.857,2.746-3.3,4.849q-.62-1.679-1.109-3.42c1.586-1.772,3.317-3.709,3.761-4.221.869-1-.094-2.151-1-1.351-.19.228-1.735,1.915-3.27,3.585q-.315-1.34-.547-2.709c1.579-1.815,3.539-4.069,4-4.614.8-.945-.108-2.007-.949-1.251C39.166,82.5,37.514,84.387,36,86.1q-.23-1.819-.314-3.679c1.757-1.345,3.881-2.974,4.4-3.373.911-.709.284-1.852-.628-1.321-.221.179-2.109,1.635-3.813,2.949,0-.133-.005-.266-.005-.4,0-1.334.06-2.653.172-3.957,1.808-.854,3.9-1.84,4.427-2.09.968-.46.628-1.622-.3-1.325-.235.116-2.2,1.074-3.979,1.943q.211-1.8.557-3.547c1.7-.592,3.591-1.254,4.08-1.423.938-.324.743-1.427-.143-1.249-.221.08-1.991.748-3.658,1.378q.337-1.49.771-2.94c1.713-.463,3.877-1.051,4.395-1.186.887-.233.787-1.262-.044-1.161-.235.065-2.312.715-4.016,1.25q.525-1.617,1.165-3.179c1.651-.21,3.914-.492,4.434-.547.843-.093.891-1.048.119-1.068-.243.031-2.518.443-4.178.746q.7-1.618,1.519-3.171c1.531.028,3.669.067,4.158.086.783.033.959-.835.255-.959-.236-.006-2.516.12-4.062.206Q42.1,56.636,43,55.25c1.358.15,3.048.338,3.465.4.721.1.962-.686.323-.864-.2-.026-2.038-.058-3.425-.079q.729-1.1,1.519-2.148c1.308-.024,3.261-.057,3.706-.05.683.009.816-.75.2-.843-.218,0-2.316.277-3.571.446q.884-1.149,1.84-2.236c1.117.063,3.557.206,4.054.251.649.06.831-.653.251-.786-.278-.02-3.605.238-4.08.274,1-1.133,2.069-2.21,3.178-3.238,1.066.09,3.393.288,3.875.342.63.071.82-.619.26-.759-.29-.028-3.828.194-3.828.194l-.087.019q1.136-1.042,2.343-2l.805.143s3.326.092,3.615.059c.556-.152.35-.836-.275-.751-.527.071-3.232.389-4.071.488.157-.124.31-.253.468-.376L53.6,44l.051-.345c.813-.628,1.65-1.224,2.5-1.8l3.547,1.259c.607.216.957-.422.433-.693-.28-.093-3.428-.776-3.428-.776h-.246c.825-.544,1.674-1.057,2.536-1.549l-.02.152.128-.215.048-.027c1.1.395,3.152,1.134,3.613,1.29.637.217.992-.455.444-.728-.3-.094-3.43-.892-3.43-.892H59.75a46.06,46.06,0,0,1,6.009-2.747l.9-.532-.893-.1a48.043,48.043,0,0,0-6,2.361c.2-.881.635-2.771.673-3.006.008-.613-.751-.6-.851.061-.061.411-.277,2.047-.434,3.237-.761.372-1.514.759-2.252,1.169.155-.724.631-2.968.657-3.214-.03-.587-.756-.532-.81.11-.037.424-.185,2.2-.281,3.356-.87.5-1.725,1.011-2.558,1.559.14-.955.287-1.94.335-2.236.1-.623-.575-.848-.743-.3-.028.2-.038,1.829-.04,2.831q-1.494,1-2.909,2.108c.148-1.049.393-2.835.39-3.039-.1-.57-.8-.435-.778.2.013.388.023,1.968.029,3.131-.836.669-1.654,1.358-2.443,2.08.091-1.05.186-2.2.176-2.363-.125-.581-.84-.408-.79.241.025.327.08,1.5.131,2.578-.711.665-1.4,1.348-2.073,2.055-.081-1.224-.186-2.713-.221-2.892-.212-.587-.931-.306-.787.362.08.368.344,1.8.566,3.013Q43.8,50.742,42.9,51.832c-.194-1.241-.452-2.863-.505-3.046-.264-.566-.955-.222-.752.43.116.375.535,1.877.871,3.093-.549.688-1.077,1.4-1.589,2.115-.348-1.322-.787-2.976-.858-3.161-.327-.578-1.034-.155-.762.52.154.386.731,1.955,1.2,3.231q-.629.911-1.215,1.852c-.51-1.3-1.07-2.716-1.154-2.885-.406-.59-1.122-.068-.767.631.185.364.86,1.76,1.461,3.014-.418.7-.822,1.4-1.206,2.124-.678-1.33-1.4-2.736-1.5-2.909-.483-.6-1.215.015-.777.74.224.372,1.051,1.792,1.8,3.087-.471.932-.918,1.878-1.331,2.842-.759-1.559-1.633-3.349-1.741-3.555-.5-.674-1.315-.038-.874.766.255.465,1.3,2.414,2.137,3.972-.271.685-.53,1.378-.769,2.078-.837-1.432-1.739-2.976-1.857-3.162-.546-.634-1.314.062-.814.83.274.421,1.355,2.114,2.274,3.558-.264.847-.514,1.7-.733,2.569-.961-1.153-1.885-2.259-2.158-2.59-.633-.763-1.6-.194-1.119.574.17.2,1.689,1.93,2.96,3.377-.212.956-.4,1.921-.556,2.9-1.211-1.31-2.4-2.6-2.562-2.774-.76-.615-1.5.346-.761,1.124.372.394,1.786,1.882,3.092,3.258-.119.957-.2,1.923-.263,2.9C30.863,78,29.721,76.74,29.565,76.56c-.8-.68-1.621.336-.848,1.192.392.434,1.89,2.071,3.274,3.583-.009.38-.023.758-.023,1.14,0,.751.019,1.5.053,2.241-1.2-1.271-2.317-2.444-2.665-2.8-.862-.89-2.009-.087-1.339.823.247.244,2.476,2.625,4.178,4.448.086.889.194,1.773.327,2.648-1.684-1.159-3.253-2.241-3.467-2.4-1.065-.577-1.746.757-.675,1.54.544.4,2.636,1.878,4.565,3.241q.334,1.631.778,3.222c-1.885-1.151-3.74-2.286-3.979-2.447-1.094-.519-1.7.852-.59,1.575.62.4,3.184,2.016,5.329,3.361.328.975.688,1.932,1.075,2.877-2.109-.741-4.207-1.48-4.478-1.591-1.179-.278-1.487,1.188-.249,1.663.669.257,3.348,1.239,5.674,2.09q.5,1.065,1.047,2.1c-2.4-.115-4.969-.243-5.284-.272-1.209.068-1.087,1.561.236,1.663.713.056,3.561.233,6.033.384q.7,1.193,1.457,2.339c-2.507.069-5.347.143-5.68.136-1.2.16-.966,1.639.36,1.643.76,0,3.929-.041,6.5-.077q.918,1.266,1.913,2.468c-2.693.133-5.793.281-6.153.277-1.279.186-1.01,1.762.406,1.75.852-.008,4.537-.115,7.341-.2q1.083,1.18,2.239,2.288c-2.842.292-6.1.619-6.478.633-1.35.257-.991,1.92.513,1.838.93-.049,5.04-.362,8.043-.6q1.077.92,2.207,1.776c-3.107.334-6.9.734-7.33.748-1.434.268-1.057,2.034.539,1.952,1.106-.056,6.447-.466,9.624-.714q.911.59,1.85,1.143c-3.126.609-7.16,1.386-7.6,1.439-1.405.39-.88,2.116.7,1.9,1.165-.159,7.056-1.122,10.088-1.621q.959.47,1.94.9c-3.127,1.175-7.075,2.65-7.519,2.776-1.4.645-.561,2.359,1.055,1.865,1.145-.351,6.728-2.229,9.89-3.3.512.179,1.026.352,1.545.513-2.919,1.634-6.621,3.7-7.043,3.888-1.289.846-.2,2.416,1.323,1.685,1.058-.508,6.116-3.109,9.109-4.655a48.8,48.8,0,0,0,22.018,0c2.994,1.545,8.05,4.147,9.111,4.655,1.523.731,2.611-.839,1.321-1.685-.421-.193-4.124-2.255-7.042-3.888.52-.161,1.033-.335,1.543-.513,3.164,1.069,8.746,2.947,9.892,3.3,1.615.493,2.455-1.22,1.054-1.865-.443-.127-4.392-1.6-7.519-2.776q.984-.429,1.941-.9c3.031.5,8.923,1.462,10.089,1.621,1.582.216,2.108-1.511.7-1.9-.44-.053-4.474-.83-7.6-1.439q.939-.553,1.851-1.143c3.178.247,8.518.658,9.624.714,1.6.081,1.972-1.684.539-1.952-.427-.014-4.222-.415-7.331-.748q1.129-.855,2.206-1.776c3,.234,7.113.548,8.043.6,1.5.082,1.863-1.581.513-1.838-.382-.014-3.636-.34-6.477-.633q1.157-1.106,2.239-2.288c2.8.084,6.49.191,7.342.2,1.415.013,1.684-1.563.4-1.75-.36,0-3.46-.144-6.154-.277q1-1.2,1.913-2.468c2.571.036,5.739.078,6.5.077,1.326,0,1.56-1.483.36-1.643-.334.008-3.173-.067-5.68-.136q.76-1.146,1.457-2.339c2.472-.152,5.32-.328,6.032-.384,1.323-.1,1.446-1.6.237-1.663-.315.029-2.882.157-5.284.272q.549-1.038,1.047-2.1c2.327-.851,5.006-1.833,5.675-2.09,1.238-.476.927-1.941-.251-1.663-.27.11-2.367.849-4.476,1.591.385-.945.745-1.9,1.073-2.877,2.145-1.345,4.709-2.958,5.33-3.361,1.112-.723.5-2.095-.588-1.575-.241.161-2.1,1.3-3.981,2.447.295-1.06.557-2.135.78-3.222,1.929-1.364,4.02-2.844,4.564-3.241C133.465,88.185,132.784,86.852,131.72,87.428Z" transform="translate(-20.9 -24.486)" fill="#009640"/>
      <path id="Path_3284" data-name="Path 3284" d="M73.637,133.228A60,60,0,0,0,116.064,30.8a60,60,0,1,0-84.853,84.854A59.6,59.6,0,0,0,73.637,133.228Zm-57.051-60a57.051,57.051,0,0,1,97.392-40.341A57.051,57.051,0,1,1,33.3,113.567,56.67,56.67,0,0,1,16.586,73.227Z" transform="translate(-13.637 -13.227)" fill="#009640"/>
      <path id="Path_3285" data-name="Path 3285" d="M127.155,102.133a1.57,1.57,0,0,0-2.764.185c-.738,1.474.368,1.474-1.291.184q-1.237-1.182-2.428-2.239a1.367,1.367,0,1,0-1.845-1.6C105.3,87.32,96.821,87.961,92.135,89.969c11.013-.372,19.825,5.819,24.983,10.264a1.367,1.367,0,1,0,1.848,1.648c1.492,1.374,2.493,2.383,2.936,2.649,1.234.739,1.751,1.842,3.595,1.1A3.258,3.258,0,0,0,127.155,102.133Z" transform="translate(-53.844 -51.94)" fill="#009640"/>
      <path id="Path_3286" data-name="Path 3286" d="M107.8,102.133a1.571,1.571,0,0,1,2.765.185c.738,1.474-.369,1.474,1.29.184q1.24-1.182,2.428-2.239a1.367,1.367,0,1,1,1.845-1.6c13.523-11.349,22.007-10.708,26.693-8.7C131.808,89.6,123,95.788,117.836,100.233a1.367,1.367,0,1,1-1.848,1.648c-1.492,1.374-2.493,2.383-2.936,2.649-1.234.739-1.751,1.842-3.594,1.1A3.257,3.257,0,0,1,107.8,102.133Z" transform="translate(-61.814 -51.94)" fill="#009640"/>
      <path id="Path_3287" data-name="Path 3287" d="M124.665,58.405h-2.949a23.491,23.491,0,0,1-.184-3.6c.184-.644.738-.644,1.29-.553a8.106,8.106,0,0,1,.092-2.58c0-.092-.185-.829,0-1.014.342-.342-.005-1.223-.185-1.474.185.278-.092-.829.369-.737-.092-1.566.092-1.566.092-3.133.461,0,0-.554-.092-.922-.369-1.106.553-2.212-.738-2.949-.829-.369-1.2.738-1.658,1.2a2.649,2.649,0,0,0-.092,1.2c-.739-.277-.739-1.106-1.106-1.659s-.092-1.2-.184-1.842h-.368c-.092.275-.277.46-.37.737a10.015,10.015,0,0,0-.092,1.659c-.184-.277-.553-.369-.737-.553a8.258,8.258,0,0,1-.83-4.7c-.829-.093-1.014,1.2-1.474,1.659-.184.184-.369-.37-.369-.645a4.132,4.132,0,0,1,.738-3.409c.092-.185,1.105-.922,1.105-1.107a3.516,3.516,0,0,0-2.4.552c-.5.5-.276-1.842.461-2.488a8.386,8.386,0,0,1,2.857-1.107c0-.183-.184-.276-.092-.46a10.076,10.076,0,0,0-3.318.184c.184-.922,1.29-1.29,2.119-1.382a21.141,21.141,0,0,1,3.41-.092,2.059,2.059,0,0,0-.738-1.382c-.276-.369-.921-.093-1.382-.186a8.69,8.69,0,0,1,2.673-.091c.552.091.921.645,1.474.829,0-.829.185-2.212-.922-2.488a3.034,3.034,0,0,1,2.581,1.75h.277c.092-.091-.093-.367,0-.46.184-.093.184-.368.277-.553.368-.278.092-2.121.644-2.3.553.183.277,2.027.645,2.3.093.184.093.46.277.553.092.092-.092.368,0,.46h.276a3.036,3.036,0,0,1,2.581-1.75c-1.1.276-.921,1.659-.921,2.488.554-.184.921-.738,1.474-.829a8.69,8.69,0,0,1,2.673.091c-.461.093-1.106-.183-1.382.186a2.061,2.061,0,0,0-.738,1.382,21.119,21.119,0,0,1,3.409.092c.83.092,1.936.46,2.12,1.382a10.065,10.065,0,0,0-3.318-.184c.092.184-.092.276-.092.46a8.384,8.384,0,0,1,2.857,1.107c.738.645.892,3.042.461,2.488a2.531,2.531,0,0,0-2.121-.828,11.046,11.046,0,0,0,.83,1.383,4.129,4.129,0,0,1,.738,3.409c0,.275-.185.829-.369.645-.461-.46-.645-1.752-1.475-1.659a8.263,8.263,0,0,1-.828,4.7c-.184.184-.554.276-.738.553a10.061,10.061,0,0,0-.092-1.659c-.092-.276-.277-.461-.368-.737h-.368c-.093.644.184,1.289-.185,1.842s-.368,1.382-1.1,1.659a2.663,2.663,0,0,0-.093-1.2c-.461-.46-.83-1.566-1.659-1.2-.921.553-.211,1.188-.829,3.042-.092.367-.462.829,0,.829,0,1.567.277,1.474.184,3.04.46-.092.092,1.107.277.829-.461.645-.83,1.107-.093,1.843.185.184-.092.553-.092.645a8.092,8.092,0,0,1,.092,2.58c.553-.092,1.106-.092,1.29.553a23.491,23.491,0,0,1-.184,3.6h-3.32Z" transform="translate(-65.177 -18.902)" fill="#009640"/>
      <g id="Group_33" data-name="Group 33" transform="translate(36.046 57.073)">
        <path id="Path_3288" data-name="Path 3288" d="M167.727,138.079a.53.53,0,0,0-.269.166.267.267,0,0,0-.031.237.336.336,0,0,0,.148.207,1.488,1.488,0,0,0,.254-.112.805.805,0,0,0,.244-.228.505.505,0,0,0,.043-.153.757.757,0,0,0,.013-.146A.706.706,0,0,0,167.727,138.079Z" transform="translate(-128.448 -134.226)" fill="#009640"/>
        <path id="Path_3289" data-name="Path 3289" d="M151.37,151.22c0,.032-.01.153-.023.368a1.67,1.67,0,0,0-.019.338.422.422,0,0,0,.254.2.77.77,0,0,0,.448-.1,4.05,4.05,0,0,0,.38-.209,2.68,2.68,0,0,0,.284-.2,1.463,1.463,0,0,0-.714-.279A1.981,1.981,0,0,0,151.37,151.22Z" transform="translate(-120.207 -140.978)" fill="#009640"/>
        <path id="Path_3290" data-name="Path 3290" d="M105.763,139.532a1.745,1.745,0,0,0-.252-.051,2.093,2.093,0,0,1-.368-.1,2.191,2.191,0,0,1-.341-.179.589.589,0,0,0-.28-.118,1.887,1.887,0,0,0,.209.459,4.635,4.635,0,0,0,.27.426,3.114,3.114,0,0,0,.407-.232Z" transform="translate(-96.235 -134.766)" fill="#009640"/>
        <path id="Path_3291" data-name="Path 3291" d="M124.192,130.229a15.019,15.019,0,0,1-26.068,0H87.533a24.76,24.76,0,0,0,47.164,0Zm-1.964,4.985a4.012,4.012,0,0,1,.478-.074,3.049,3.049,0,0,1,.491-.063c.044.019.078.12.1.313s.014.306-.016.334a1.571,1.571,0,0,1-.443.106,1.74,1.74,0,0,1-.443.039c-.032-.018-.07-.127-.121-.328S122.207,135.235,122.229,135.214Zm-17.736,3.335a1.623,1.623,0,0,1,.453-.129,1.62,1.62,0,0,1,.112.365,1.438,1.438,0,0,1,.088.382,1.115,1.115,0,0,1-.427.172,1.274,1.274,0,0,1-.461.073.946.946,0,0,1-.152-.334c-.062-.215-.083-.33-.064-.356A1.8,1.8,0,0,1,104.493,138.549Zm-6.882-5.474a.9.9,0,0,1,.073-.264c.3.091.515.157.639.2.153.048.249.071.278.077a.78.78,0,0,0-.1.288.471.471,0,0,0,.009.262,1.115,1.115,0,0,0,.323.106c.2.048.309.079.343.092l-.022.628c-.2-.021-.405-.051-.608-.091a1.069,1.069,0,0,1-.327-.088,1.274,1.274,0,0,1-.01-.331c.006-.2.016-.3.019-.309q-.155-.051-.3-.1a2.68,2.68,0,0,0-.306-.089A.923.923,0,0,1,97.611,133.075Zm-1.035,6.993a1.358,1.358,0,0,1-.4-.052,3.368,3.368,0,0,1-.166-.457c-.06-.236-.1-.383-.114-.446-.172-.025-.321-.058-.462-.088a.935.935,0,0,0-.247-.039,1.8,1.8,0,0,1-.166-.5,1.067,1.067,0,0,1-.053-.413c.447.082.741.124.859.156a1.222,1.222,0,0,0,.159.026,1.294,1.294,0,0,0,.05.431.881.881,0,0,0,.144.376,1.11,1.11,0,0,0,.365.078,2.677,2.677,0,0,1,.407.049l.278.881A4.487,4.487,0,0,1,96.576,140.068Zm8.747,2.609c-.274-.1-.543-.205-.8-.315s-.526-.213-.792-.32a3.286,3.286,0,0,0-1.045-.11,2.556,2.556,0,0,1-1.027-.158l-1.328-.753-.01.01-.874-.574a.178.178,0,0,1-.08-.124.159.159,0,0,1,.062-.138l.356-.354c-.066.023-.223.072-.463.134s-.377.092-.4.1L98.3,139.6l0,0-.356-.289a.565.565,0,0,1-.231-.589.915.915,0,0,1,.2-.321l-.877.08-.963-1.019-.006,0-.06-.072-.128-.136.01,0-.485-.581a.419.419,0,0,1-.021-.6c.163-.133.339-.267.521-.4a1.13,1.13,0,0,0-.468-.092c-.445-.024-.7-.122-.755-.283-.092-.221-.192-.489-.318-.792-.166-.437-.281-.713-.344-.832a4.789,4.789,0,0,1,.9.06,3.668,3.668,0,0,1,.995.2,4.226,4.226,0,0,1,.6.321c.284.155.611.323.974.505a.4.4,0,0,0,.138-.085.416.416,0,0,1,.139-.086c.168.021.3.035.412.038.343.023.638.033.879.037a4.694,4.694,0,0,1-.66.4c-.4.229-.8.464-1.19.706a5.845,5.845,0,0,0-.6.4.263.263,0,0,0-.011.239,1.672,1.672,0,0,0,.234.322l.112.122,1.223,1.245a1.359,1.359,0,0,0,.357-.154c.154-.086.3-.173.445-.259.026-.005.225-.015.584-.025.362-.026.561-.036.6-.033a.387.387,0,0,1-.04.037l-.123.088c-.109.078-.234.16-.378.248s-.315.181-.514.284a.29.29,0,0,0-.184.287.443.443,0,0,0,.177.316l.139.107.812.6,1.706-1.986c.243-.062.429-.115.554-.154.391-.12.642-.2.755-.223a7.588,7.588,0,0,1-.988,1.2c-.681.793-1.085,1.26-1.219,1.393s-.136.228-.017.3l.062.039h0l1.6.879a2.606,2.606,0,0,0,.488.176,1.432,1.432,0,0,0,.407.054,4.036,4.036,0,0,0-.326-.433,1.979,1.979,0,0,0-.455-.475,1.417,1.417,0,0,0-.431-.162,1.74,1.74,0,0,0-.436-.026c.322-.135.583-.236.786-.3a1.559,1.559,0,0,1,1.094-.1,1.754,1.754,0,0,1,.722.6c.432.529.662.8.665.8a6.256,6.256,0,0,0,.745.58,2.087,2.087,0,0,0,.562.283Zm2.884-2.254a15.566,15.566,0,0,1-.339,1.765,2.659,2.659,0,0,1-.506,1.023,2.83,2.83,0,0,1-.517.436l.531-3.016a3.152,3.152,0,0,1,.479-.564c.243-.272.4-.438.47-.507Q108.256,140.087,108.206,140.423Zm5.948,1.4c.038.124.1.307.178.546a2.144,2.144,0,0,1,.025.447c0,.218-.018.449-.042.7,0,.06-.041.109-.125.152a.623.623,0,0,1-.244.055l-.953.111v0l-.1.008-.178.02v-.008l-.878.065c-.094,0-.165-.058-.215-.175-.1-.239-.151-.359-.168-.39-.05.02-.123.12-.222.305s-.2.279-.31.283l-2.222-.109a.26.26,0,0,1-.183-.1.224.224,0,0,1-.04-.184c.051-.171.092-.3.121-.4a4.17,4.17,0,0,1,.295-.72,1.159,1.159,0,0,1,.182-.307.406.406,0,0,1,.2-.152c0,.019-.021.1-.054.239s-.054.239-.063.293a.475.475,0,0,0,.012.255.188.188,0,0,0,.187.1l1.958.063a3.937,3.937,0,0,0-.19-.9c-.125-.485-.184-.738-.183-.747s.081-.186.237-.511.233-.495.259-.535c.07.232.156.541.259.924.039.138.091.332.16.579a7.077,7.077,0,0,0,.329.942c.075.141.156.2.243.193l.328-.029.935-.1c.015-.013.018-.052,0-.121a8.894,8.894,0,0,0-.34-1.075c-.1-.281-.2-.58-.3-.9l-.147-.1a.717.717,0,0,1-.16-.126c.08-.245.149-.459.206-.63.1-.334.174-.514.218-.519a1.32,1.32,0,0,1,.071.2.476.476,0,0,0,.161.262c.168.1.322.178.461.241a1.9,1.9,0,0,0,.537.188l-.457.991Q113.954,141.2,114.154,141.825Zm2.239,1.491-1.388-2.767a2.834,2.834,0,0,1,.072-.672c.047-.322.079-.527.1-.614q.262.472.425.778a16.023,16.023,0,0,1,.789,1.627,2.263,2.263,0,0,1,.184,1.067A1.962,1.962,0,0,1,116.394,143.316Zm1.358-4.211c-.021.072-.045.156-.075.242a2.023,2.023,0,0,1-.493-.019,1.31,1.31,0,0,1-.4-.1c.047-.219.083-.383.114-.5.02-.08.038-.149.053-.2a1.876,1.876,0,0,0,.428.1,1.006,1.006,0,0,0,.367.015c.023-.01.051-.091.078-.243a1.109,1.109,0,0,1,.065-.273l.9.043a2.489,2.489,0,0,1,0,.46c-.017.165-.038.259-.062.272a3.143,3.143,0,0,1-.315,0c-.349-.017-.548-.033-.6-.044A.87.87,0,0,1,117.752,139.1Zm2.818,2.223a1.605,1.605,0,0,1-.315.411,1.91,1.91,0,0,1-.45.356,3.041,3.041,0,0,1-.694.245c-.309.043-.512-.022-.614-.207a1.436,1.436,0,0,1-.136-.728c0-.122.023-.409.054-.851a4.12,4.12,0,0,1,.042-.459c.012-.089.046-.281.1-.583.172.03.3.046.4.063.311.045.552.083.722.121a1.249,1.249,0,0,1,.426.16,1.331,1.331,0,0,1,.3.262c.035.043.064.081.087.115s.041.065.059.1a6.462,6.462,0,0,1,.1.67A1.111,1.111,0,0,1,120.57,141.328Zm2.73.466a4.729,4.729,0,0,1-1.389.45c-.669.111-1.031.115-1.087.037-.027-.037-.019-.065.025-.088.194-.053.389-.107.58-.173a3.112,3.112,0,0,0,.552-.238,1.706,1.706,0,0,0,.378-.406,2.924,2.924,0,0,0,.385-.726c.038-.1.095-.258.166-.475.082-.308.063-.509-.054-.612a1.917,1.917,0,0,0-.83-.171c-.149-.018-.363-.03-.65-.052-.086-.176-.152-.305-.2-.389a1.96,1.96,0,0,1-.2-.489c.572.064.888.1.933.1a2.6,2.6,0,0,1,1.217.527,2.524,2.524,0,0,1,.438.463,1.806,1.806,0,0,1,.277,1.079A1.42,1.42,0,0,1,123.3,141.794Zm-1.495-4.42a2.228,2.228,0,0,1-.315-.557c-.14-.276-.233-.458-.262-.536.347.172.631.312.849.423a18.921,18.921,0,0,1,1.678.928,2.3,2.3,0,0,1,.786.761,1.684,1.684,0,0,1,.175.556Zm6.849-.62c-.488.482-.784.7-.892.672a.875.875,0,0,1-.2.759,4.733,4.733,0,0,1-1.269.848c-.657.3-1.015.418-1.092.363s-.078-.091-.032-.13c.2-.11.416-.209.621-.316a1.984,1.984,0,0,0,.511-.368,1.7,1.7,0,0,0,.337-1.173c-.025-.561-.156-.882-.391-.98a2.04,2.04,0,0,0-.883.065c-.154.022-.378.063-.667.123-.137-.139-.24-.241-.309-.3a1.892,1.892,0,0,1-.342-.4c.6-.09.922-.147.967-.153a2.916,2.916,0,0,1,1.367.155,2.284,2.284,0,0,1,.573.315,2.212,2.212,0,0,1,.684.818,1.649,1.649,0,0,1,.12.356,7.028,7.028,0,0,1,.407-.62,3.257,3.257,0,0,0,.464-.929,2.557,2.557,0,0,0-.07-1.3c-.149-.409-.371-.64-.641-.691a.85.85,0,0,0-.18-.011,1.648,1.648,0,0,1,.413.409.648.648,0,0,1-.155.565.826.826,0,0,1-.7.386,2.3,2.3,0,0,1-.691-.13,2.078,2.078,0,0,1-.7-.605c-.292-.327-.381-.559-.274-.719a1.407,1.407,0,0,1,.839-.324,3.621,3.621,0,0,1,1.271-.053,2.961,2.961,0,0,1,1.591.736,1.078,1.078,0,0,1,.29,1.413A9.593,9.593,0,0,1,128.654,136.754Z" transform="translate(-87.533 -130.229)" fill="#009640"/>
      </g>
      <g id="Group_34" data-name="Group 34" transform="translate(22.131 57.073)">
        <path id="Path_3292" data-name="Path 3292" d="M72.809,138.055l.384-.129a.948.948,0,0,0-.206-.091,1.884,1.884,0,0,1-.305-.145,1.691,1.691,0,0,1-.25-.215.463.463,0,0,0-.225-.141,1.9,1.9,0,0,0,.046.443,1.5,1.5,0,0,0,.124.418A3.362,3.362,0,0,0,72.809,138.055Z" transform="translate(-65.767 -133.868)" fill="#009640"/>
        <path id="Path_3293" data-name="Path 3293" d="M120.306,179.778a1.194,1.194,0,0,1-.287.107.429.429,0,0,0-.213.135,2,2,0,0,0,.418.188,3.213,3.213,0,0,0,.422.132,3.53,3.53,0,0,0,.039-.478c.007-.1.013-.226.025-.414a.846.846,0,0,0-.159.136A1.312,1.312,0,0,1,120.306,179.778Z" transform="translate(-90.148 -155.44)" fill="#009640"/>
        <path id="Path_3294" data-name="Path 3294" d="M82.932,157.877a1.761,1.761,0,0,0-.184,0,.259.259,0,0,0-.133.284.621.621,0,0,0,.163.326c.065.083.116.114.153.092a1.479,1.479,0,0,0,.259-.345c.063-.132.06-.22.014-.28A.433.433,0,0,0,82.932,157.877Z" transform="translate(-71.097 -144.39)" fill="#009640"/>
        <path id="Path_3295" data-name="Path 3295" d="M123.871,130.229a28.351,28.351,0,0,1-54.615,0H59.007a38.268,38.268,0,0,0,75.033,0Zm2.313,2.224c.74-.024,1.382-.02,1.926.017a2.887,2.887,0,0,1,1.079.256,1.94,1.94,0,0,1,.478.342l-3.32.056a2.465,2.465,0,0,1-.578-.3c-.271-.163-.447-.27-.529-.328C125.623,132.471,125.939,132.459,126.184,132.453ZM88.616,151.658a1.831,1.831,0,0,0,.195-.155,1.3,1.3,0,0,0,.2.314c.108.142.181.217.221.227.023.006.1-.039.245-.151a1.944,1.944,0,0,1,.248-.169l.5.57c-.121.117-.252.244-.385.354s-.212.163-.232.159a2.46,2.46,0,0,1-.267-.27c-.16-.174-.239-.269-.241-.274-.075.05-.149.1-.224.141a1.1,1.1,0,0,0-.21.155,1.019,1.019,0,0,1-.311-.29,1.5,1.5,0,0,1-.183-.285C88.381,151.828,88.528,151.719,88.616,151.658ZM67.532,132.483a.892.892,0,0,1,.14-.265c.252.127.442.215.552.268.13.069.207.108.232.117a1.116,1.116,0,0,0-.175.295.588.588,0,0,0-.082.28,1.1,1.1,0,0,0,.284.154,2.458,2.458,0,0,1,.284.157l-.222.65c-.18-.061-.366-.126-.539-.2a.928.928,0,0,1-.268-.147,1.7,1.7,0,0,1,.1-.337,1.935,1.935,0,0,1,.094-.309c-.086-.049-.168-.1-.248-.146a1.326,1.326,0,0,0-.252-.13A1.238,1.238,0,0,1,67.532,132.483Zm-2.011,8.182a5.679,5.679,0,0,1-.588-.118.86.86,0,0,1-.3-.116,2.14,2.14,0,0,1,.042-.407c.037-.25.036-.372.042-.381-.02,0-.116-.043-.292-.112a2.247,2.247,0,0,0-.283-.109,1.9,1.9,0,0,1,.043-.439,1.068,1.068,0,0,1,.072-.353c.307.084.5.15.612.192s.194.074.256.1a1.266,1.266,0,0,0-.123.376c-.032.181-.04.3,0,.33a.481.481,0,0,0,.184.087l.441.162Zm.047-2.368h0l-.029-.062-.034-.066h0l-.414-.913h-.007l-.4-.981-.008,0-.311-.786a.41.41,0,0,1,.2-.517c.2-.092.406-.18.615-.266a1.037,1.037,0,0,0-.424-.141c-.389-.087-.586-.205-.592-.351a5.054,5.054,0,0,0-.073-.717,4.939,4.939,0,0,0-.076-.76,4.028,4.028,0,0,1,.822.127,2.9,2.9,0,0,1,.876.275,4.631,4.631,0,0,1,.459.367c.225.182.467.392.74.621a.412.412,0,0,0,.154-.06.462.462,0,0,1,.154-.058c.148.048.267.083.358.107.329.079.592.148.811.2a5.073,5.073,0,0,1-.74.263q-.669.212-1.328.434c-.44.149-.669.234-.691.252a.233.233,0,0,0-.09.207c.02.071.049.181.1.324l.022.058.423,1.022h0l.517,1.115.914,1.744a3.461,3.461,0,0,0,.4-.356,2.716,2.716,0,0,0,.426-.5c.105.019.287.04.547.061.173.013.366.028.592.034-.112.155-.212.279-.289.366a2.756,2.756,0,0,1-.668.6,1.706,1.706,0,0,1-.3.141c-.093.036-.245.082-.455.138a.769.769,0,0,1-.119.03c-.054.009-.2.045-.441.1a3.583,3.583,0,0,1-.509.1Zm2.025,2.771.606-.2.938,1.419a.884.884,0,0,0,.35-.391,1.351,1.351,0,0,0,.167-.473c.008-.058.02-.148.036-.271a.547.547,0,0,0-.015-.215l1.171-.212a1.093,1.093,0,0,1-.017.372,1.6,1.6,0,0,1-.188.561,2.218,2.218,0,0,1-.411.555,1.819,1.819,0,0,1-.459.356.559.559,0,0,1-.1.059l-.182.091a3.893,3.893,0,0,1-.689.28c-.279.078-.453.059-.527-.054l-1.134-1.75C67.17,141.2,67.321,141.156,67.594,141.069Zm17.076,12.16c-.049.128-.12.315-.209.56a3.133,3.133,0,0,1-.255.406c-.136.187-.285.387-.452.6a.178.178,0,0,1-.173.071.419.419,0,0,1-.2-.057l-.94-.376.007-.014-.919-.406v0l-.053-.026-.077-.034v0l-.868-.428,0,.006-.639-.327.049-.317-.315.163-1.019-.587a.41.41,0,0,0,0-.073c-.017-.087-.034-.148-.061-.167s-.063,0-.141.024-.134.031-.162.014l-1.07-.683a1.535,1.535,0,0,0,0-.158c-.005-.051-.012-.08-.025-.09a.488.488,0,0,1-.13.047.336.336,0,0,1-.24-.057l-.6-.42.01-.01-.809-.583,0,.008-.849-.681,0,0-.843-.713.2-.535c-.114.04-.213.067-.307.092a2.545,2.545,0,0,1-.327.071l-1.148-1.081.013-.011-.712-.71h0l-.029-.032-.07-.07,0,0-.622-.684-.008.005-.457-.523a3.282,3.282,0,0,1-1.358.07,1.474,1.474,0,0,1-1.05-.455,2.081,2.081,0,0,1-.373-.959c-.1-.432-.078-.689.046-.748a.066.066,0,0,1,.094.027,2.837,2.837,0,0,0,.163.382,1.6,1.6,0,0,0,.176.347,1.517,1.517,0,0,0,.213.245,1,1,0,0,0,.311.192,5.357,5.357,0,0,0,.69.312,3.372,3.372,0,0,0,.74.157,2.464,2.464,0,0,1-.3-.447c-.191-.435-.147-.725.16-.9a4.021,4.021,0,0,1,1.155-.3c.688-.119,1.118-.086,1.288.111.115.141.069.359-.134.659a3.489,3.489,0,0,1-.8.838l.191.228h0l.842.916h0l.787.777-.007.006.969.908a.745.745,0,0,0,.05-.357.547.547,0,0,0-.191-.4c-.055-.041-.1-.081-.154-.112l-.11-.072a4.111,4.111,0,0,1,.407-.129c.257-.077.471-.143.628-.182a.447.447,0,0,1,.226.014,1.554,1.554,0,0,1,.668.331.854.854,0,0,1,.307.77.81.81,0,0,1-.221.553.974.974,0,0,1-.405.188,2.242,2.242,0,0,0-.364.127l.284.23,0,0,.864.688h0l1.012.724-.005.006.632.437a.206.206,0,0,0,.214-.034,1.375,1.375,0,0,0,.173-.187q.315-.157.477-.227a1.913,1.913,0,0,1,.6-.211,4.3,4.3,0,0,1-.629.572c-.1.085-.251.194-.447.335l.892.566a.126.126,0,0,0,.148,0,.59.59,0,0,0,.145-.147c.022-.03.047-.067.076-.111a7.784,7.784,0,0,1,.761-.372,1.206,1.206,0,0,1,.3-.085,1.707,1.707,0,0,0-.128.147q-.064.085-.258.354a5.291,5.291,0,0,1-.4.415c-.026.027-.061.064-.105.112l.6.332c.017.009.036,0,.059-.04a1.252,1.252,0,0,0,.092-.18,1.323,1.323,0,0,1,.093-.183c.169-.1.347-.189.533-.274.216-.1.347-.149.386-.127l-.418.733a.463.463,0,0,0-.057.287c.007.1.037.17.085.2l.1.057,1.1.535,1.03.452,0,.007.713.285c.018,0,.042-.041.074-.105a10.316,10.316,0,0,0,.393-1.1c.1-.291.2-.6.3-.923-.027-.069-.046-.12-.057-.154a.734.734,0,0,1-.054-.185q.315-.275.538-.46c.3-.258.462-.379.5-.362a1.753,1.753,0,0,1-.063.206.478.478,0,0,0-.03.307,3.556,3.556,0,0,0,.221.426,1.608,1.608,0,0,0,.294.428l-.974.648C84.917,152.573,84.83,152.8,84.67,153.229Zm2.216-.84a18.165,18.165,0,0,1-.569,1.794,3.229,3.229,0,0,1-.588,1,2.6,2.6,0,0,1-.489.4l.864-3.06a3.27,3.27,0,0,1,.5-.542c.257-.248.423-.4.5-.466C87.02,151.875,86.946,152.167,86.886,152.389Zm8.038,6.471c-.124.14-.2.209-.225.207a3.323,3.323,0,0,1-.365-.235c-.177-.135-.288-.225-.335-.261l-.272.243a.654.654,0,0,0-.139.144,2.009,2.009,0,0,1-.4-.24,1.333,1.333,0,0,1-.291-.279c.252-.263.416-.43.491-.489.026-.023.056-.055.091-.092a3,3,0,0,0,.306.28.912.912,0,0,0,.311.2c.024,0,.1-.063.224-.191a1.7,1.7,0,0,1,.233-.237l.7.537A4.868,4.868,0,0,1,94.923,158.859Zm2.993-1.462-.115.006V157.4l-1,0v0l-1.125-.028v.006l-.54-.015a.592.592,0,0,1-.5-.333,1.287,1.287,0,0,1-.11-.39l-.387.655-1.227-.121v0l-1.14-.138h0l-.033-.005-.108-.012v0l-.9-.148,0,.009-.831-.16a.488.488,0,0,1-.393-.448q-.01-.34-.01-.687a.92.92,0,0,0-.288.286c-.225.308-.405.421-.538.35-.189-.1-.416-.2-.672-.331-.37-.173-.608-.279-.715-.313a3.692,3.692,0,0,1,.422-.679,2.518,2.518,0,0,1,.578-.651,2.829,2.829,0,0,1,.5-.2c.247-.093.528-.2.838-.322a.5.5,0,0,0,0-.169.465.465,0,0,1,0-.169c.1-.1.175-.193.233-.258.194-.235.356-.438.486-.6a5.289,5.289,0,0,1-.041.8c-.038.473-.072.943-.1,1.411s-.039.72-.032.748a.294.294,0,0,0,.158.184,1.283,1.283,0,0,0,.331.1l.06.012,1.228.2h0l.961.115v0l1.547.144a1.2,1.2,0,0,0,.08-.353c.02-.169.038-.337.053-.5a4.417,4.417,0,0,1,.3-.4c.184-.238.288-.37.315-.393a.375.375,0,0,1,0,.055c0,.051,0,.1-.007.15-.007.131-.018.279-.037.439s-.046.348-.083.558a.4.4,0,0,0,.1.352.4.4,0,0,0,.308.14l.068,0,1.106.026h0l1.243,0h0l1.65-.093a3.612,3.612,0,0,0-.14-.392,2.116,2.116,0,0,0-.5-.732l.373-1.04a1.876,1.876,0,0,1,.333.419,4.379,4.379,0,0,1,.4.745,1.146,1.146,0,0,1,.064.2c.017.069.032.161.047.272s.023.193.028.264.01.139.014.21c-.018.191-.039.4-.065.637s-.049.385-.065.46l-2.075.126v0h-.031Zm1.5,1.5a1.173,1.173,0,0,1-.382.282c-.034.018-.171-.07-.4-.244s-.347-.282-.348-.315.1-.171.294-.386a2.086,2.086,0,0,1,.348-.344,3.286,3.286,0,0,1,.4.309,2.041,2.041,0,0,1,.386.35C99.71,158.6,99.613,158.714,99.413,158.9Zm12.431-4.818a.4.4,0,0,1-.174.105l-.917.429-.009-.016-.925.384,0,.006-1.025.377,0,.009-1.049.34-.455-.4c-.011.1-.02.2-.031.29a1.808,1.808,0,0,1-.059.3l-1.519.426-.006-.017-.974.238,0,.008-1.077.2v0l-.472.1c-.081.007-.143.009-.183.009a.527.527,0,0,1-.273-.083,4.072,4.072,0,0,1-.3,1.1c-.247.551-.537.842-.855.894a3.263,3.263,0,0,1-1.214-.3c-.562-.234-.846-.421-.859-.543,0-.046,0-.071.03-.071.15.08.3.163.445.229a1.076,1.076,0,0,0,.5.088,1.453,1.453,0,0,0,.476-.167,1.923,1.923,0,0,0,.581-.481c.105-.138.209-.261.314-.387.226-.282.324-.5.294-.656a1.323,1.323,0,0,0-.358-.488c-.1-.112-.215-.221-.325-.331.062-.209.123-.415.181-.609a3.088,3.088,0,0,1,.119-.36c.186.223.376.444.571.675a.889.889,0,0,0,.834.367l.041-.006,1.085-.206h0l1.21-.295,0,.01,1.276-.356a1.007,1.007,0,0,0-.336-.217.68.68,0,0,0-.478-.034.835.835,0,0,0-.175.062c-.05.026-.089.044-.113.056a3.686,3.686,0,0,1,.025-.4c.02-.252.041-.451.06-.609,0-.033.033-.089.1-.18a1.281,1.281,0,0,1,.589-.386,1.283,1.283,0,0,1,1.376.588.828.828,0,0,1,.03.422,1.654,1.654,0,0,0-.019.359l.348-.119,0,0,1.038-.379v0l1.148-.475.008.013.7-.315c.008-.015-.007-.054-.046-.12-.094-.163-.335-.487-.725-.992-.194-.255-.4-.528-.628-.819-.078-.025-.134-.046-.171-.06a.89.89,0,0,1-.2-.084c-.028-.264-.051-.489-.065-.675-.034-.359-.042-.568,0-.587a1.446,1.446,0,0,1,.143.18.572.572,0,0,0,.251.218c.193.056.367.1.521.132a2.272,2.272,0,0,0,.56.067l-.052,1.095q.031.047.44.632c.08.115.2.284.362.506a3.234,3.234,0,0,1,.194.441q.122.326.24.7A.151.151,0,0,1,111.844,154.082Zm-.453-3.264a3.232,3.232,0,0,1-.156-.713c-.055-.338-.084-.555-.09-.646.259.289.468.529.628.719q.732.856,1.209,1.54a3.1,3.1,0,0,1,.5,1.046,2.11,2.11,0,0,1,.042.6Zm2.516-2.3a3.023,3.023,0,0,1-.408.024c-.263,0-.4-.007-.4-.009,0,.084-.011.167-.02.247a.822.822,0,0,0,.012.268,1.754,1.754,0,0,1-.472.016,2.062,2.062,0,0,1-.368-.05c0-.246,0-.417,0-.518a1.718,1.718,0,0,0,0-.22,1.17,1.17,0,0,0,.4.044.929.929,0,0,0,.34-.013c.021-.013.032-.1.036-.259a1.459,1.459,0,0,1,.018-.273l.834,0c.021.158.037.316.045.48S113.924,148.5,113.907,148.513Zm15.275-13.959a.689.689,0,0,0-.154.176,1.082,1.082,0,0,0-.108.253c.018.021,0,.063-.02.134a.684.684,0,0,1-.052.126l-.307.79h.007l-.444,1.057.006,0-.491,1.059h0l-.285.579c-.024.048.026.11.171.2q.184.119.167.234l-1.845,1.168c0,.034.077.111.24.24a.3.3,0,0,1,.052.439l-.246.406,0,0-.594.98-.014-.007-.544.824.007,0-.508.686c-.013.05-.053.07-.109.079a.255.255,0,0,1-.164-.037l-.466-.234c.037.049.115.157.232.33l.194.288-.3.4.007,0-.733.883,0,0-.727.831.007.007-.48.522a1.688,1.688,0,0,0-.306.01c-.424.02-.665.029-.719.036.008.012.047.106.125.293a3.959,3.959,0,0,0,.17.41l-1.1,1.059.007.007-.872.743,0,0-.831.664.008,0-.676.512a.588.588,0,0,1-.641.01c-.2-.133-.387-.247-.591-.391a.635.635,0,0,0,.052.371c.118.345.1.545-.047.6-.2.085-.444.172-.722.276-.384.17-.635.263-.733.32a3.53,3.53,0,0,1-.315-.718,2.527,2.527,0,0,1-.2-.828,2.346,2.346,0,0,1,.146-.482c.088-.226.172-.5.27-.792a.62.62,0,0,0-.144-.108.623.623,0,0,1-.143-.108c-.029-.134-.052-.242-.074-.322-.071-.274-.133-.508-.195-.706a4.536,4.536,0,0,1,.659.505q.58.475,1.159.942c.388.306.6.469.626.48a.425.425,0,0,0,.274.01,1.293,1.293,0,0,0,.3-.19l.05-.036.868-.687h0l.844-.714h0l1.151-1.113-2.133-.08c-.126-.14-.264-.3-.414-.5s-.313-.424-.491-.694l1.156-1.952.724.778a3.857,3.857,0,0,1-.266.448c-.388.628-.621,1-.677,1.115l3.016-.048.148-.153h0l.732-.828h0l.712-.845h0l.571-.74-2.6-1.075c-.1-.18-.187-.316-.247-.412a6.376,6.376,0,0,1-.325-.568,8.14,8.14,0,0,1,1.531.619c1.007.443,1.6.707,1.77.8s.277.083.345-.008l.039-.051.7-1.029,0,0,.58-.941.008,0,.376-.61c.017-.065-.01-.128-.1-.2a2.028,2.028,0,0,1-.368-.378,1.255,1.255,0,0,1-.22-.676,1,1,0,0,1,.067-.625.331.331,0,0,1,.169-.168.351.351,0,0,1,.176.021c.025.009.068.021.13.039a.95.95,0,0,0,.191.029,2.569,2.569,0,0,0,.642-.084c.275-.056.434-.122.472-.2l.035-.067.472-1h0l.44-1.016h0l.325-.821c0-.018-.044-.035-.138-.051a11.793,11.793,0,0,0-1.22-.072c-.315-.012-.652-.025-1.011-.037-.075.041-.13.071-.166.089a.671.671,0,0,1-.208.086c-.177-.123-.345-.243-.5-.36-.271-.2-.4-.32-.38-.368a2.158,2.158,0,0,0,.295.03.469.469,0,0,0,.255-.053c.21-.156.414-.29.587-.412a1.4,1.4,0,0,0,.331-.279l.318.318c.215.219.345.35.389.391.036,0,.289.026.758.06.139.012.344.025.613.044q.171.011.534-.34c.241-.237.411-.357.568-.339a1.524,1.524,0,0,1,.571.192,1.716,1.716,0,0,1,.345.268,1.624,1.624,0,0,1-.259.117A.74.74,0,0,0,129.182,134.553Z" transform="translate(-59.007 -130.229)" fill="#009640"/>
        <path id="Path_3296" data-name="Path 3296" d="M173.954,169.6a.712.712,0,0,0,.014.2,1.107,1.107,0,0,1,.011.294,1.75,1.75,0,0,1-.084.284.282.282,0,0,0-.03.225,2.152,2.152,0,0,0,.436-.185c.186-.092.317-.163.4-.212a3.93,3.93,0,0,0-.391-.322C174.226,169.814,174.109,169.719,173.954,169.6Z" transform="translate(-117.832 -150.393)" fill="#009640"/>
        <path id="Path_3297" data-name="Path 3297" d="M195.079,148.17a.54.54,0,0,0-.087.424l.264-.151c.11-.068.192-.116.239-.148.093-.059.136-.1.13-.12a1.059,1.059,0,0,0-.3-.075C195.2,148.084,195.114,148.107,195.079,148.17Z" transform="translate(-128.65 -139.38)" fill="#009640"/>
      </g>
    </g>
  </g>
</svg>
