<svg id="Absher_Logo" data-name="Absher Logo" xmlns="http://www.w3.org/2000/svg" width="120" height="178.848" viewBox="0 0 120 178.848">
  <g id="Absher_Logo-2" data-name="Absher Logo">
    <path id="Path_3261" data-name="Path 3261" d="M266.82,88.79v131.1c0,3.368-1.183,5.189-4.461,5.553a83.309,83.309,0,0,1-9.559.091V94.617c0-3.55,1.275-5.371,4.643-5.735A80.155,80.155,0,0,1,266.82,88.79Z" transform="translate(-146.82 -69.169)" fill="#0e9346" fill-rule="evenodd"/>
    <path id="Path_3262" data-name="Path 3262" d="M150.328,127.5V245.3c0,4.1-1.73,5.917-5.826,6.1-2.276.091-4.552,0-6.828.091-.91,0-1.366-.364-1.275-1.275V134.6c0-4.916,1.366-6.828,7.1-7.01C145.594,127.407,147.87,127.5,150.328,127.5Z" transform="translate(-136.387 -72.644)" fill="#0e9346" fill-rule="evenodd"/>
    <path id="Path_3263" data-name="Path 3263" d="M243.337,103c0,.728.091,1.366.091,2V220.8c0,4.188-1.73,6.009-6.009,6.191-2.185.091-4.461,0-6.646.091-1,0-1.366-.364-1.275-1.366a20.512,20.512,0,0,0,0-2.367V109.642c0-4.643,1.457-6.373,6.191-6.646C238.147,102.9,240.605,103,243.337,103Z" transform="translate(-144.731 -70.447)" fill="#0e9346" fill-rule="evenodd"/>
    <path id="Path_3264" data-name="Path 3264" d="M197.02,127.585v95.226c0,4.279-1.73,6.1-6.009,6.282-2.458.091-4.825,0-7.283,0a4.1,4.1,0,0,1-.728-.182V134.14c0-4.552,1.275-6.1,5.735-6.646C191.285,127.312,194.016,127.585,197.02,127.585Z" transform="translate(-140.565 -72.64)" fill="#0e9346" fill-rule="evenodd"/>
    <path id="Path_3265" data-name="Path 3265" d="M220.219,127.5v95.772c0,3.915-1.73,5.735-5.735,5.917-2.367.091-4.643,0-7.01.091-.91,0-1.366-.364-1.275-1.275V134.874c0-4.825,1-7.01,7.283-7.192C215.576,127.5,217.761,127.5,220.219,127.5Z" transform="translate(-142.643 -72.647)" fill="#0e9346" fill-rule="evenodd"/>
    <path id="Path_3266" data-name="Path 3266" d="M159.7,229.184V134.049c0-4.461,1.092-5.917,5.553-6.464,2.731-.273,5.462-.091,8.285-.091,0,.637.091,1.275.091,1.821v93.678c0,4.1-1.73,5.917-5.735,6.009C165.253,229.184,162.613,229.184,159.7,229.184Z" transform="translate(-138.477 -72.641)" fill="#0e9346" fill-rule="evenodd"/>
    <path id="Path_3267" data-name="Path 3267" d="M166.592,117.484a7.13,7.13,0,0,1-7.192-7.1,7.238,7.238,0,1,1,14.475.091A7.133,7.133,0,0,1,166.592,117.484Z" transform="translate(-138.45 -70.46)" fill="#0e9346" fill-rule="evenodd"/>
    <path id="Path_3268" data-name="Path 3268" d="M213.192,117.475A7.06,7.06,0,0,1,206,110.192a7.193,7.193,0,1,1,14.384.182A7.13,7.13,0,0,1,213.192,117.475Z" transform="translate(-142.626 -70.451)" fill="#0e9346" fill-rule="evenodd"/>
    <path id="Path_3269" data-name="Path 3269" d="M189.883,117.484a7.192,7.192,0,1,1,7.192-7.01A7.054,7.054,0,0,1,189.883,117.484Z" transform="translate(-140.529 -70.46)" fill="#0e9346" fill-rule="evenodd"/>
    <path id="Path_3270" data-name="Path 3270" d="M243.275,252.892A7.238,7.238,0,0,1,228.8,252.8a7.238,7.238,0,0,1,14.475.091Z" transform="translate(-144.669 -83.239)" fill="#0e9346" fill-rule="evenodd"/>
    <path id="Path_3271" data-name="Path 3271" d="M266.74,80.951H252.993c-.91-6.737,6.737-14.384,13.747-13.656Z" transform="translate(-146.831 -67.247)" fill="#0e9346" fill-rule="evenodd"/>
  </g>
</svg>
