<svg xmlns="http://www.w3.org/2000/svg" width="1500" height="1500.006" viewBox="0 0 1500 1500.006">
  <g id="MOI_Logo" data-name="MOI Logo" opacity="0.05">
    <g id="Group_35" data-name="Group 35">
      <path id="Path_3283" data-name="Path 3283" d="M1326.611,687.959c-2.683,2.031-22.3,15.561-43.329,30.042q2.479-16.4,4.067-33.1c21.3-22.786,49.152-52.548,52.231-55.6,8.378-11.384-5.951-21.42-16.732-10.292-4.341,4.488-18.256,19.158-33.316,35.042.421-9.286.671-18.628.671-28.012,0-4.774-.183-9.506-.286-14.25,17.292-18.9,36.018-39.359,40.926-44.786,9.652-10.707-.549-23.4-10.622-14.9-1.933,2.244-16.2,17.957-31.39,34.646-.781-12.158-1.817-24.244-3.305-36.2,16.341-17.195,34.006-35.8,38.646-40.731,9.207-9.732-.012-21.738-9.512-14.055-1.976,2.152-16.884,18.3-32.024,34.67-1.945-12.219-4.3-24.286-6.951-36.237,15.9-18.091,34.871-39.731,36.993-42.213,6-9.6-6.067-16.719-13.988-7.177-3.421,4.128-14.951,17.951-26.975,32.371-2.738-10.835-5.841-21.518-9.158-32.115,11.5-18.042,24.987-39.207,28.426-44.469,6.25-9.6-3.36-18.3-10.177-10.378-1.464,2.335-12.738,21.634-23.213,39.524-2.988-8.756-6.226-17.4-9.616-25.975,10.451-19.469,23.53-43.829,26.707-49.646,5.506-10.049-4.7-18.006-10.914-9.579-1.378,2.573-12.3,24.951-21.78,44.438-5.14-12.061-10.732-23.884-16.634-35.53,9.415-16.183,19.731-33.932,22.548-38.585,5.475-9.067-3.683-16.78-9.713-9.256-1.25,2.159-10.262,19.738-18.725,36.365-4.78-8.994-9.841-17.823-15.067-26.548,7.536-15.671,15.951-33.128,18.25-37.676,4.451-8.738-4.482-15.262-9.561-7.89-1.049,2.122-8.055,19.835-14.433,36.066q-7.344-11.78-15.189-23.152c5.847-15.951,13.067-35.56,15.006-40.384,3.366-8.445-5.445-13.725-9.53-6.5-.89,2.323-6.39,22.993-10.719,39.518-6.415-8.994-13-17.835-19.866-26.439,4.207-15.195,9.427-33.975,10.866-38.658,2.561-8.152-6.079-12.451-9.384-5.378-.658,2.287-3.89,22.561-6.329,38.079q-11.131-13.646-23.091-26.585c2.756-15.146,6.079-33.054,7.079-37.658,1.793-8.347-7.189-11.86-9.841-4.524-.433,2.232-1.75,20.847-2.756,36.152-8.359-8.835-17.03-17.366-25.92-25.683.634-13.512,1.335-28.134,1.646-32.225.628-8.116-8.3-10.28-9.872-3.012-.116,1.982,1.079,16.414,2.219,29.542-9.866-9.018-20.091-17.64-30.56-26,.091-14.53.213-34.286.378-39.134.25-7.914-8.524-9.616-9.725-2.482-.036,2.555,3.043,24.878,4.872,37.987q-17.652-13.838-36.359-26.353c-.036-12.53-.146-32.926-.518-35.39-2.085-6.9-10.543-4.091-9.274,3.7.591,3.689,2.433,16.012,4.189,27.945C1005.543,112.444,994.854,106,983.988,99.8c-1.207-14.475-3.055-36.646-3.506-41.944-.689-8.024-9.744-8.707-10.128-1.372.317,3.079,6.274,31.121,8.22,40.176-9.232-5.128-18.634-9.963-28.146-14.616-1.951-14.872-4.671-35.317-5.433-40.457-1.238-8.323-10.744-8.433-10.64-.762.488,2.927,5.89,26.548,8.439,37.573a599.142,599.142,0,0,0-75.035-29.518l-11.146,1.268L867.832,56.8a576.648,576.648,0,0,1,75.121,34.341l-.451-.018s-39.182,9.969-42.859,11.152c-6.86,3.421-2.4,11.811,5.543,9.1,5.762-1.957,31.457-11.195,45.164-16.128.207.11.378.226.6.335l1.6,2.689s-.1-.7-.244-1.9c10.762,6.14,21.372,12.555,31.688,19.359l-3.079.006s-39.335,8.536-42.841,9.7c-6.543,3.378-2.177,11.36,5.408,8.658,5.64-1.994,31.4-11.14,44.359-15.744,10.683,7.158,21.152,14.61,31.31,22.463.384,2.689.634,4.317.634,4.317l.512-3.421c1.964,1.53,3.884,3.14,5.848,4.7-10.5-1.244-44.3-5.213-50.889-6.1-7.811-1.061-10.39,7.488-3.439,9.384,3.6.409,45.188-.738,45.188-.738l10.079-1.787q15.054,12.046,29.286,25.03l-1.1-.238s-44.219-2.774-47.834-2.427c-7.012,1.762-4.628,10.372,3.238,9.494,6.018-.671,35.127-3.158,48.414-4.274,13.89,12.847,27.195,26.317,39.762,40.481-5.957-.457-47.548-3.677-51.011-3.427-7.256,1.659-4.976,10.567,3.122,9.823,6.219-.561,36.719-2.341,50.682-3.134q11.908,13.619,22.994,27.951c-15.689-2.116-41.9-5.579-44.634-5.579-7.713,1.159-6.036,10.646,2.5,10.536,5.567-.085,29.969.329,46.328.628q9.869,13.152,18.994,26.853c-17.335.268-40.268.665-42.81.988-8.006,2.232-4.982,12.061,4.024,10.8,5.183-.726,26.329-3.079,43.3-4.951q11.2,17.323,21.189,35.469c-19.341-1.085-47.841-2.652-50.78-2.579-8.8,1.555-6.61,12.4,3.177,11.994,6.116-.244,32.847-.732,51.993-1.079q10.2,19.39,18.981,39.633c-20.762-3.786-49.207-8.945-52.237-9.329-9.634.25-9.036,12.189,1.469,13.347,6.512.7,34.792,4.219,55.432,6.841q8,19.509,14.579,39.743c-21.311-6.7-47.268-14.823-50.194-15.628-10.4-1.262-11.646,11.61-.549,14.518,6.469,1.683,33.524,9.03,54.92,14.829q5.414,18.146,9.64,36.755c-20.853-7.878-42.957-16.219-45.713-17.225-11.1-2.225-13.524,11.561-1.8,15.616,6.128,2.116,29.81,10.39,51.024,17.792q4.3,21.878,6.933,44.335c-22.286-10.866-46.786-22.841-49.713-24.292-11.646-3.707-15.884,10.811-3.8,16.567,6.567,3.116,32.719,15.451,55.341,26.121,1.378,16.3,2.14,32.786,2.14,49.457,0,1.659-.061,3.323-.061,4.988-21.311-16.427-44.9-34.627-47.676-36.859-11.372-6.628-19.213,7.652-7.823,16.518,6.408,4.988,32.981,25.347,54.914,42.158q-1.052,23.259-3.9,45.993c-18.914-21.469-39.554-45.005-41.945-47.908-10.524-9.451-21.9,3.823-11.865,15.64,5.774,6.8,30.261,34.981,50,57.67q-2.908,17.122-6.823,33.865C1210,709.8,1190.692,688.709,1188.3,685.861c-11.353-10-23.378,4.347-12.53,16.89,5.554,6.408,27.188,30.615,47.017,52.761-4.073,14.494-8.725,28.768-13.854,42.755-18.036-26.292-38.993-56.962-41.231-60.615-9.823-11.506-23.786,1-14.811,14.945,5.268,8.232,28.347,42.926,46.414,70.029q-8.927,21.219-19.457,41.505c-13.354-28.609-28.622-61.408-30.243-65.3-7.811-12.969-23.609-2.909-17.036,12.323,3.884,8.963,20.963,46.877,34.353,76.56q-12.768,22.07-27.414,42.835c-8.756-31.609-19.567-70.858-20.555-75.224-5.536-14.091-22.8-6.8-18.853,9.3,2.506,10.195,14.506,55.969,22.951,88.163q-14.259,18.411-29.963,35.573c-4.042-34.981-9.109-79.2-9.4-84.023-3.372-15.811-22.8-11.158-21.451,6.488.854,11.488,5.9,64.353,9.311,99.821q-15.219,14.954-31.554,28.817c-.963-37.487-2.128-85.383-1.927-90.578-1.9-17.073-22.975-14.158-23.42,4.646-.262,12.231-.25,68.523-.213,106.413Q994,1075.4,972.171,1089.013c1.549-39.408,3.585-88.682,4.171-94.078-.7-18.225-23.231-16.762-25.122,3.128-1.177,12.414-5.085,67.9-7.829,107.828q-24.612,13.472-50.627,24.542c10.128-41.164,23.768-96.163,25.682-101.864,3.244-19.018-20.372-22.475-26.695-2.311-4.219,13.408-22.176,76.718-33.737,117.638a576.15,576.15,0,0,1-173.034,32.2,576.191,576.191,0,0,1-173.046-32.2c-11.555-40.92-29.524-104.23-33.743-117.638-6.335-20.164-29.951-16.707-26.676,2.311,1.89,5.7,15.53,60.7,25.67,101.864q-25.984-11.039-50.621-24.542c-2.756-39.932-6.652-95.407-7.835-107.828-1.9-19.89-24.408-21.353-25.128-3.128.61,5.4,2.622,54.67,4.165,94.078Q376,1075.4,355.517,1059.947c.03-37.89.043-94.181-.232-106.413-.427-18.8-21.494-21.719-23.414-4.646.213,5.2-.963,53.091-1.927,90.578q-16.308-13.829-31.554-28.817c3.421-35.469,8.463-88.334,9.329-99.821,1.341-17.652-18.109-22.3-21.469-6.488-.28,4.823-5.341,49.042-9.4,84.023q-15.677-17.186-29.969-35.573c8.463-32.195,20.457-77.968,22.957-88.163,3.951-16.116-13.3-23.4-18.847-9.3-.994,4.366-11.8,43.615-20.567,75.224q-14.6-20.734-27.408-42.835c13.4-29.682,30.481-67.6,34.353-76.56,6.567-15.232-9.232-25.292-17.036-12.323-1.6,3.9-16.878,36.695-30.231,65.3q-10.518-20.323-19.469-41.505c18.067-27.1,41.146-61.8,46.42-70.029,8.975-13.945-4.976-26.451-14.8-14.945-2.25,3.658-23.207,34.323-41.231,60.615q-7.747-20.981-13.866-42.755c19.823-22.146,41.457-46.359,47.011-52.761,10.86-12.543-1.171-26.884-12.53-16.89-2.378,2.847-21.689,23.939-40.871,44.816q-3.933-16.756-6.835-33.865c19.744-22.688,44.237-50.865,50.011-57.67,10.03-11.817-1.348-25.091-11.866-15.64-2.39,2.909-23.042,26.439-41.932,47.908q-2.872-22.737-3.927-45.993c21.957-16.811,48.511-37.17,54.938-42.158,11.384-8.866,3.549-23.146-7.847-16.518-2.762,2.232-26.365,20.433-47.664,36.859-.012-1.664-.067-3.329-.067-4.988,0-16.67.756-33.158,2.146-49.457,22.6-10.67,48.774-23.006,55.334-26.121,12.1-5.75,7.854-20.274-3.787-16.567-2.933,1.451-27.439,13.427-49.737,24.292q2.643-22.445,6.957-44.335c21.207-7.4,44.883-15.676,51.005-17.792,11.719-4.049,9.293-17.841-1.787-15.616-2.762,1.006-24.89,9.347-45.719,17.225q4.216-18.622,9.634-36.755c21.408-5.793,48.457-13.14,54.932-14.829,11.085-2.909,9.841-15.78-.549-14.518-2.933.811-28.9,8.939-50.2,15.628q6.567-20.213,14.561-39.743c20.64-2.622,48.92-6.146,55.42-6.841,10.536-1.159,11.134-13.1,1.482-13.347-3.036.384-31.469,5.543-52.231,9.329q8.762-20.222,18.994-39.633c19.134.348,45.859.835,51.981,1.079,9.793.409,11.982-10.439,3.183-11.994-2.951-.073-31.451,1.494-50.78,2.579q9.951-18.146,21.176-35.469c16.975,1.872,38.1,4.219,43.31,4.951,9.018,1.25,12.024-8.573,4.037-10.8-2.555-.323-25.475-.719-42.816-.988q9.11-13.71,18.994-26.853c16.347-.3,40.762-.707,46.322-.628,8.543.116,10.2-9.372,2.5-10.536-2.726,0-28.951,3.463-44.64,5.579q11.049-14.369,23-27.951c13.957.793,44.463,2.573,50.67,3.134,8.11.744,10.39-8.164,3.14-9.823-3.469-.244-45.066,2.969-51.005,3.427,12.555-14.158,25.859-27.628,39.725-40.481,13.323,1.122,42.408,3.6,48.432,4.274,7.872.884,10.256-7.732,3.256-9.494-3.622-.348-47.847,2.427-47.847,2.427l-1.092.238q14.2-13.024,29.292-25.03l10.067,1.787s41.579,1.146,45.182.738c6.951-1.9,4.378-10.445-3.433-9.384-6.591.89-40.4,4.86-50.889,6.1,1.963-1.555,3.878-3.165,5.854-4.7l.512,3.421s.238-1.628.634-4.317c10.158-7.847,20.628-15.3,31.311-22.463,12.951,4.6,38.713,13.75,44.341,15.744,7.591,2.7,11.957-5.28,5.415-8.658-3.506-1.165-42.847-9.7-42.847-9.7l-3.073-.006c10.317-6.8,20.927-13.213,31.695-19.359-.152,1.2-.244,1.9-.244,1.9l1.6-2.689c.207-.116.4-.232.6-.335,13.695,4.933,39.4,14.171,45.164,16.128,7.963,2.707,12.4-5.683,5.549-9.1-3.689-1.177-42.871-11.152-42.871-11.152l-.439.018A575.752,575.752,0,0,1,502.106,56.8l11.232-6.652-11.164-1.268A600.539,600.539,0,0,0,427.156,78.4c2.524-11.018,7.933-34.64,8.414-37.573.1-7.665-9.39-7.555-10.634.762-.762,5.134-3.463,25.585-5.421,40.457C410,86.7,400.589,91.536,391.364,96.664c1.933-9.055,7.89-37.1,8.213-40.176-.378-7.335-9.451-6.652-10.122,1.372-.457,5.3-2.311,27.469-3.518,41.944-10.872,6.2-21.561,12.64-31.981,19.487,1.75-11.933,3.585-24.25,4.183-27.945,1.262-7.793-7.189-10.6-9.286-3.7-.354,2.463-.47,22.859-.506,35.39q-18.677,12.539-36.365,26.353c1.848-13.11,4.915-35.438,4.878-37.987-1.2-7.128-9.982-5.433-9.719,2.482.159,4.848.293,24.6.366,39.134-10.451,8.36-20.677,16.975-30.542,26,1.14-13.122,2.323-27.561,2.2-29.542-1.561-7.262-10.506-5.1-9.872,3.012.317,4.091,1.006,18.713,1.64,32.225-8.884,8.317-17.555,16.847-25.908,25.683-1.018-15.3-2.323-33.914-2.768-36.152-2.652-7.335-11.64-3.823-9.835,4.524.994,4.6,4.3,22.506,7.079,37.658q-11.917,12.96-23.109,26.585c-2.421-15.518-5.646-35.792-6.317-38.079-3.3-7.073-11.939-2.774-9.4,5.378,1.451,4.683,6.683,23.463,10.884,38.658C204.7,257.57,198.1,266.411,191.7,275.4c-4.348-16.53-9.841-37.2-10.719-39.518-4.091-7.225-12.92-1.939-9.53,6.5,1.921,4.823,9.14,24.432,14.988,40.383q-7.857,11.387-15.189,23.152c-6.378-16.231-13.372-33.945-14.421-36.066-5.079-7.372-14.024-.848-9.585,7.89,2.311,4.549,10.744,22,18.268,37.676-5.219,8.732-10.28,17.561-15.073,26.548-8.475-16.628-17.463-34.2-18.719-36.365-6.043-7.524-15.183.183-9.713,9.256,2.8,4.652,13.14,22.4,22.542,38.585-5.884,11.646-11.475,23.475-16.634,35.53-9.494-19.487-20.414-41.865-21.768-44.438-6.219-8.427-16.433-.469-10.921,9.579,3.189,5.817,16.262,30.17,26.707,49.646-3.39,8.567-6.622,17.219-9.616,25.975-10.463-17.9-21.744-37.194-23.213-39.524-6.829-7.921-16.421.774-10.171,10.378,3.427,5.262,16.933,26.426,28.42,44.469-3.3,10.591-6.421,21.274-9.158,32.115C86.179,462.761,74.631,448.932,71.222,444.8c-7.915-9.542-19.981-2.427-13.988,7.177,2.122,2.482,21.109,24.122,37,42.213-2.652,11.951-5.012,24.018-6.945,36.237-15.14-16.372-30.06-32.518-32.03-34.67-9.506-7.689-18.713,4.323-9.518,14.055,4.652,4.927,22.323,23.53,38.646,40.731-1.488,11.957-2.518,24.036-3.293,36.2-15.189-16.683-29.463-32.4-31.414-34.646-10.049-8.5-20.262,4.2-10.6,14.9,4.9,5.427,23.628,25.89,40.92,44.786-.11,4.744-.287,9.475-.287,14.25,0,9.384.238,18.719.665,28.012C65.332,638.167,51.424,623.5,47.07,619.009c-10.78-11.122-25.115-1.092-16.738,10.292,3.085,3.055,30.945,32.817,52.231,55.6,1.073,11.109,2.421,22.164,4.085,33.1C65.6,703.52,45.991,689.989,43.314,687.959c-13.311-7.207-21.823,9.463-8.433,19.25,6.8,4.963,32.945,23.469,57.066,40.518q4.18,20.387,9.719,40.274c-23.561-14.384-46.749-28.573-49.737-30.591-13.677-6.488-21.28,10.646-7.372,19.689,7.756,5.037,39.8,25.195,66.615,42.011,4.1,12.189,8.6,24.152,13.433,35.963-26.359-9.268-52.584-18.506-55.975-19.884-14.731-3.476-18.591,14.853-3.116,20.792,8.36,3.213,41.847,15.482,70.92,26.122q6.247,13.317,13.091,26.292c-30.018-1.433-62.115-3.043-66.048-3.4-15.116.854-13.585,19.512,2.951,20.792,8.914.7,44.511,2.909,75.407,4.8q8.707,14.908,18.207,29.237c-31.335.866-66.834,1.793-71,1.7-15,2-12.073,20.493,4.506,20.536,9.5.012,49.109-.518,81.237-.964q11.478,15.823,23.908,30.853c-33.664,1.659-72.407,3.512-76.913,3.457-15.987,2.329-12.622,22.03,5.073,21.872,10.646-.1,56.719-1.433,91.767-2.482q13.536,14.753,27.993,28.6c-35.524,3.652-76.2,7.732-80.974,7.908-16.878,3.208-12.384,24.006,6.415,22.975,11.628-.61,63.005-4.524,100.535-7.457q13.463,11.5,27.585,22.2c-38.841,4.171-86.3,9.171-91.627,9.348-17.92,3.354-13.213,25.42,6.738,24.4,13.823-.7,80.584-5.829,120.3-8.921q11.387,7.381,23.122,14.292c-39.079,7.609-89.5,17.323-95,17.981-17.567,4.872-11,26.451,8.786,23.756,14.567-1.988,88.2-14.024,126.1-20.262q11.982,5.881,24.256,11.244c-39.085,14.683-88.438,33.121-93.986,34.7-17.524,8.067-7.018,29.481,13.189,23.317,14.311-4.384,84.1-27.859,123.626-41.225,6.4,2.232,12.829,4.4,19.317,6.414-36.487,20.42-82.767,46.194-88.035,48.6-16.116,10.579-2.518,30.2,16.542,21.067,13.225-6.347,76.444-38.865,113.864-58.182a610,610,0,0,0,275.227,0c37.426,19.317,100.627,51.834,113.883,58.182,19.036,9.134,32.634-10.488,16.518-21.067-5.268-2.408-51.554-28.182-88.029-48.6,6.5-2.018,12.914-4.183,19.292-6.414,39.548,13.359,109.327,36.841,123.65,41.225,20.183,6.164,30.688-15.25,13.177-23.317-5.543-1.585-54.9-20.018-93.992-34.7q12.3-5.36,24.262-11.244c37.89,6.238,111.535,18.274,126.108,20.262,19.774,2.7,26.353-18.884,8.774-23.756-5.506-.659-55.92-10.372-95.023-17.981q11.743-6.915,23.14-14.292c39.719,3.091,106.48,8.219,120.3,8.921,19.945,1.018,24.652-21.048,6.732-24.4-5.341-.177-52.78-5.183-91.633-9.348q14.113-10.692,27.579-22.2c37.536,2.927,88.913,6.847,100.535,7.457,18.8,1.031,23.286-19.762,6.415-22.975-4.774-.177-45.451-4.256-80.968-7.908q14.46-13.829,27.994-28.6c35.042,1.049,81.127,2.384,91.779,2.482,17.682.158,21.054-19.543,5.061-21.872-4.506.055-43.255-1.8-76.92-3.457q12.448-15.036,23.914-30.853c32.14.445,71.737.976,81.243.964,16.573-.043,19.5-18.536,4.494-20.536-4.171.1-39.658-.835-71-1.7q9.5-14.323,18.213-29.237c30.9-1.9,66.5-4.1,75.4-4.8,16.542-1.281,18.079-19.945,2.957-20.792-3.939.36-36.024,1.963-66.048,3.4q6.859-12.978,13.091-26.292c29.091-10.64,62.578-22.908,70.932-26.122,15.469-5.945,11.591-24.268-3.14-20.792-3.372,1.378-29.591,10.616-55.944,19.884,4.811-11.817,9.311-23.774,13.414-35.963,26.817-16.817,58.865-36.969,66.621-42.011,13.9-9.043,6.293-26.183-7.353-19.689-3.018,2.018-26.195,16.2-49.767,30.591,3.683-13.256,6.963-26.683,9.744-40.274,24.115-17.048,50.255-35.548,57.048-40.518C1348.421,697.416,1339.915,680.752,1326.611,687.959Z" transform="translate(58.641 98.821)" fill="#009640"/>
      <path id="Path_3284" data-name="Path 3284" d="M763.637,1513.233c200.344,0,388.683-78,530.339-219.667s219.661-330.007,219.661-530.339-78-388.658-219.661-530.333C1152.326,91.238,963.987,13.227,763.637,13.227c-413.554,0-750,336.464-750,750,0,200.326,78.017,388.677,219.673,530.339S563.3,1513.233,763.637,1513.233ZM50.5,763.227c0-190.485,74.176-369.567,208.875-504.266S573.146,50.092,763.631,50.092,1133.2,124.268,1267.9,258.961s208.887,313.782,208.887,504.266c0,393.232-319.928,713.153-713.153,713.153-190.485,0-369.573-74.176-504.26-208.9C124.672,1132.806,50.5,953.724,50.5,763.227Z" transform="translate(-13.637 -13.227)" fill="#009640"/>
      <path id="Path_3285" data-name="Path 3285" d="M529.884,255.369c-4.61-9.225-25.353-16.134-34.554,2.311-9.219,18.42,4.6,18.42-16.134,2.3Q463.729,245.208,448.849,232a17.089,17.089,0,1,0-23.061-19.945C256.748,70.2,150.707,78.207,92.135,103.311c137.662-4.652,247.807,72.743,312.294,128.3a17.087,17.087,0,1,0,23.1,20.6C446.184,269.381,458.7,282,464.226,285.326c15.427,9.244,21.89,23.024,44.932,13.811C526.78,292.088,534.488,264.589,529.884,255.369Z" transform="translate(386.504 372.047)" fill="#009640"/>
      <path id="Path_3286" data-name="Path 3286" d="M109,255.369c4.6-9.225,25.347-16.134,34.56,2.311,9.219,18.42-4.61,18.42,16.122,2.3q15.5-14.771,30.347-27.981A17.09,17.09,0,1,1,213.1,212.053C382.133,70.2,488.186,78.207,546.758,103.311c-137.656-4.652-247.807,72.743-312.306,128.3a17.086,17.086,0,1,1-23.1,20.6c-18.646,17.171-31.164,29.786-36.695,33.115-15.427,9.244-21.884,23.024-44.926,13.811C112.1,292.088,104.4,264.589,109,255.369Z" transform="translate(465.823 372.047)" fill="#009640"/>
      <path id="Path_3287" data-name="Path 3287" d="M244.306,450.549H207.441c0-14.975-4.61-29.957-2.3-44.944,2.3-8.055,9.219-8.055,16.128-6.909,0-10.366-2.3-21.89,1.152-32.255,0-1.146-2.311-10.36,0-12.677,4.28-4.274-.067-15.286-2.311-18.427,2.311,3.469-1.146-10.366,4.616-9.207-1.146-19.579,1.146-19.579,1.146-39.164,5.768,0,0-6.921-1.146-11.524-4.616-13.829,6.908-27.646-9.225-36.865-10.366-4.61-14.969,9.219-20.725,14.969-2.311,4.61-1.152,10.372-1.152,14.988-9.232-3.457-9.232-13.829-13.823-20.738-4.61-6.921-1.152-14.975-2.3-23.03h-4.6c-1.152,3.439-3.463,5.756-4.622,9.207-2.3,6.908,0,13.829-1.147,20.738-2.3-3.457-6.908-4.61-9.213-6.915-10.372-18.433-11.518-38.012-10.372-58.749-10.366-1.159-12.67,14.975-18.42,20.731-2.3,2.3-4.61-4.622-4.61-8.061-3.445-14.981,0-29.957,9.219-42.615,1.146-2.311,13.817-11.524,13.817-13.835-5.75,0-21.878-1.152-29.951,6.9-6.2,6.207-3.451-23.03,5.762-31.1a104.825,104.825,0,0,1,35.713-13.835c0-2.293-2.3-3.445-1.152-5.744-13.823-3.457-27.646,1.152-41.469,2.3,2.3-11.53,16.128-16.128,26.493-17.274,13.835-2.3,28.811-1.146,42.628-1.146,0-6.921-4.6-12.677-9.219-17.28-3.445-4.61-11.518-1.159-17.274-2.323,11.512-3.451,21.884-1.14,33.408-1.14,6.9,1.14,11.518,8.067,18.427,10.366,0-10.366,2.311-27.652-11.524-31.1,13.835-1.159,25.353,10.36,32.268,21.872h3.457c1.146-1.14-1.158-4.591,0-5.744,2.3-1.159,2.3-4.6,3.457-6.908,4.6-3.469,1.146-26.512,8.055-28.811,6.914,2.293,3.457,25.335,8.061,28.811,1.159,2.3,1.159,5.744,3.463,6.908,1.147,1.152-1.146,4.6,0,5.744h3.445c6.927-11.512,18.445-23.03,32.262-21.872-13.811,3.445-11.512,20.731-11.512,31.1,6.921-2.3,11.512-9.225,18.427-10.366,11.524,0,21.89-2.311,33.408,1.14-5.762,1.158-13.823-2.287-17.274,2.323-4.61,4.6-9.219,10.36-9.219,17.28,13.811,0,28.8-1.152,42.609,1.146,10.378,1.146,24.2,5.744,26.506,17.274-13.835-1.146-27.652-5.762-41.469-2.3,1.146,2.3-1.152,3.451-1.152,5.744a104.793,104.793,0,0,1,35.707,13.835c9.219,8.067,11.146,38.024,5.768,31.1-8.061-10.353-20.75-10.353-26.512-10.353,0,2.3,9.219,14.975,10.372,17.286,9.219,12.664,12.677,27.634,9.219,42.615,0,3.439-2.311,10.36-4.61,8.061-5.762-5.756-8.067-21.9-18.439-20.731,1.159,20.731,0,40.31-10.353,58.749-2.3,2.3-6.921,3.451-9.225,6.915-1.146-6.915,1.146-13.835-1.146-20.738-1.152-3.445-3.463-5.762-4.6-9.207h-4.6c-1.159,8.055,2.3,16.116-2.311,23.03s-4.6,17.28-13.811,20.738c0-4.616,1.14-10.378-1.159-14.988-5.768-5.75-10.372-19.579-20.743-14.969-11.512,6.908-2.64,14.853-10.36,38.024-1.146,4.591-5.774,10.36,0,10.36,0,19.585,3.457,18.42,2.3,38,5.756-1.146,1.152,13.841,3.463,10.366-5.768,8.067-10.378,13.841-1.159,23.042,2.311,2.3-1.146,6.915-1.146,8.061,3.457,10.366,1.146,21.89,1.146,32.255,6.915-1.146,13.823-1.146,16.128,6.909,2.3,14.988-2.3,29.969-2.3,44.944h-41.5Z" transform="translate(499.291 43.248)" fill="#009640"/>
      <g id="Group_33" data-name="Group 33" transform="translate(450.578 713.415)">
        <path id="Path_3288" data-name="Path 3288" d="M171.338,138.607a6.629,6.629,0,0,0-3.366,2.073,3.332,3.332,0,0,0-.39,2.957,4.2,4.2,0,0,0,1.854,2.585,18.593,18.593,0,0,0,3.177-1.4,10.065,10.065,0,0,0,3.049-2.853,6.318,6.318,0,0,0,.537-1.909,9.459,9.459,0,0,0,.158-1.823A8.819,8.819,0,0,0,171.338,138.607Z" transform="translate(319.654 -90.449)" fill="#009640"/>
        <path id="Path_3289" data-name="Path 3289" d="M151.892,151.283c-.03.4-.128,1.915-.286,4.6a20.868,20.868,0,0,0-.232,4.219,5.277,5.277,0,0,0,3.177,2.531c1.28.317,3.122-.128,5.6-1.219a50.6,50.6,0,0,0,4.75-2.616,33.478,33.478,0,0,0,3.555-2.549c-.878-1.171-3.878-2.347-8.927-3.482C154.953,151.551,152.41,151.015,151.892,151.283Z" transform="translate(237.645 -23.254)" fill="#009640"/>
        <path id="Path_3290" data-name="Path 3290" d="M120.029,144.648a21.818,21.818,0,0,0-3.146-.634,26.155,26.155,0,0,1-4.6-1.22,27.37,27.37,0,0,1-4.262-2.238,7.359,7.359,0,0,0-3.494-1.47,23.586,23.586,0,0,0,2.616,5.732,57.946,57.946,0,0,0,3.372,5.323,38.905,38.905,0,0,0,5.085-2.9C116.6,146.648,118.078,145.794,120.029,144.648Z" transform="translate(-0.927 -85.076)" fill="#009640"/>
        <path id="Path_3291" data-name="Path 3291" d="M545.776,130.229c-32.81,55.81-93.492,94.456-162.924,94.456s-130.114-38.646-162.924-94.456H87.533C127.038,255.715,244.3,345.378,382.852,345.378c137.278,0,253.679-91.425,294.227-215.149Zm-24.548,62.316a50.136,50.136,0,0,1,5.969-.927,38.112,38.112,0,0,1,6.14-.787c.549.232.976,1.506,1.311,3.908.256,2.421.177,3.823-.2,4.171-.274.293-2.122.756-5.537,1.329-3.384.506-5.244.647-5.542.488-.4-.219-.878-1.592-1.512-4.1C521.185,194.149,520.953,192.8,521.227,192.545Zm-221.7,41.688c3.463-1.238,5.323-1.756,5.658-1.616.183.091.64,1.585,1.4,4.567.854,2.933,1.238,4.555,1.1,4.78-.3.488-2.049,1.2-5.335,2.146-3.293.835-5.238,1.146-5.768.915-.366-.165-1-1.61-1.9-4.177-.78-2.683-1.043-4.128-.8-4.445C294.145,236.057,296.06,235.319,299.53,234.233Zm-86.023-68.426a11.26,11.26,0,0,1,.915-3.3c3.811,1.14,6.439,1.957,7.988,2.469,1.909.6,3.116.89,3.475.963a9.755,9.755,0,0,0-1.2,3.6c-.213,1.732-.2,2.854.116,3.28q.274.375,4.037,1.329c2.445.6,3.86.994,4.287,1.146l-.281,7.853c-2.506-.262-5.067-.634-7.6-1.14-2.573-.488-3.933-.884-4.091-1.1a15.918,15.918,0,0,1-.128-4.14c.079-2.512.2-3.8.232-3.866q-1.939-.64-3.8-1.305a33.523,33.523,0,0,0-3.829-1.11A11.536,11.536,0,0,1,213.507,165.808Zm-12.939,87.413c-2.927-.207-4.665-.366-4.945-.646a42.107,42.107,0,0,1-2.073-5.707c-.756-2.945-1.225-4.792-1.421-5.573-2.146-.317-4.012-.719-5.774-1.1a11.691,11.691,0,0,0-3.085-.482,22.5,22.5,0,0,1-2.073-6.3c-.689-2.7-.86-4.463-.665-5.164,5.591,1.024,9.262,1.549,10.732,1.951a15.279,15.279,0,0,0,1.988.329c-.207,1.049.067,2.78.622,5.384.573,2.658,1.274,4.14,1.8,4.7.28.286,1.8.616,4.561.975a33.475,33.475,0,0,1,5.085.616l3.469,11.012A56.083,56.083,0,0,1,200.568,253.221ZM309.9,285.83c-3.427-1.286-6.786-2.567-10.049-3.933s-6.579-2.665-9.9-4.006c-2.665-.951-6.963-1.427-13.067-1.372-6.189-.085-10.512-.762-12.841-1.976l-16.6-9.408-.128.128-10.927-7.171a2.229,2.229,0,0,1-.994-1.549,1.983,1.983,0,0,1,.78-1.719l4.451-4.427c-.823.287-2.793.9-5.787,1.677-3.024.762-4.707,1.152-5.024,1.238l-7.719-5.969.049-.049-4.445-3.609c-2.6-2.354-3.628-4.75-2.89-7.366a11.432,11.432,0,0,1,2.549-4.012l-10.963.994-12.043-12.738-.073.043-.744-.9-1.6-1.7.128-.061-6.067-7.262c-2.189-2.646-2.232-5.177-.268-7.445,2.037-1.659,4.238-3.335,6.512-4.969-.9-.6-2.86-.951-5.847-1.146-5.567-.3-8.689-1.524-9.439-3.543-1.152-2.762-2.4-6.116-3.976-9.9-2.073-5.463-3.518-8.908-4.3-10.4,1.488-.244,5.2.049,11.25.756,5.957.616,10.091,1.4,12.433,2.451a52.826,52.826,0,0,1,7.457,4.012c3.549,1.939,7.64,4.043,12.177,6.317a4.984,4.984,0,0,0,1.72-1.067,5.2,5.2,0,0,1,1.732-1.073c2.1.256,3.793.433,5.146.476,4.287.287,7.969.415,10.982.457-.451.555-3.183,2.171-8.256,5.006-4.994,2.866-9.969,5.8-14.878,8.823-4.762,3.03-7.274,4.719-7.451,5.018a3.288,3.288,0,0,0-.134,2.988,20.9,20.9,0,0,0,2.921,4.025l1.4,1.53,15.286,15.561a16.985,16.985,0,0,0,4.457-1.921c1.921-1.079,3.768-2.159,5.561-3.232.323-.067,2.817-.183,7.3-.311,4.53-.329,7.012-.451,7.561-.409a4.823,4.823,0,0,1-.494.457c-.549.378-1.055.75-1.543,1.1-1.36.969-2.927,2.006-4.719,3.1-1.811,1.092-3.939,2.268-6.421,3.555a3.628,3.628,0,0,0-2.3,3.585,5.543,5.543,0,0,0,2.207,3.945l1.738,1.335,10.152,7.5,21.323-24.823c3.043-.774,5.366-1.433,6.927-1.921,4.884-1.494,8.03-2.482,9.439-2.793.476.244-3.695,5.207-12.353,14.975-8.512,9.915-13.561,15.75-15.232,17.415-1.6,1.579-1.7,2.848-.207,3.689l.774.488.018-.012,19.994,10.981a32.564,32.564,0,0,0,6.1,2.2,17.906,17.906,0,0,0,5.092.671,50.5,50.5,0,0,0-4.073-5.408c-2.72-3.4-4.555-5.421-5.683-5.939a17.707,17.707,0,0,0-5.384-2.025,21.759,21.759,0,0,0-5.451-.329c4.03-1.683,7.292-2.951,9.829-3.72,6.39-2.171,10.914-2.665,13.677-1.293a21.919,21.919,0,0,1,9.024,7.482c5.4,6.61,8.28,10,8.311,10.055a78.19,78.19,0,0,0,9.317,7.25,26.075,26.075,0,0,0,7.024,3.543Zm36.048-28.176a194.552,194.552,0,0,1-4.238,22.061,33.24,33.24,0,0,1-6.323,12.793,35.376,35.376,0,0,1-6.463,5.451l6.64-37.7c.256-.793,2.3-3.2,5.988-7.055,3.037-3.4,4.969-5.476,5.872-6.335Q346.575,253.453,345.95,257.654Zm74.346,17.53c.469,1.555,1.213,3.841,2.219,6.823a26.812,26.812,0,0,1,.311,5.591c-.049,2.719-.219,5.616-.524,8.75,0,.744-.512,1.366-1.567,1.9a7.78,7.78,0,0,1-3.055.689l-11.908,1.39.012.061-1.275.1-2.225.256-.012-.1-10.969.817c-1.171.012-2.067-.719-2.683-2.183-1.2-2.982-1.884-4.488-2.1-4.878-.628.244-1.536,1.506-2.78,3.817s-2.549,3.488-3.872,3.537L352.09,300.4a3.247,3.247,0,0,1-2.293-1.232,2.8,2.8,0,0,1-.494-2.3c.64-2.134,1.146-3.793,1.512-5.024a52.131,52.131,0,0,1,3.683-9.006A14.49,14.49,0,0,1,356.772,279a5.074,5.074,0,0,1,2.469-1.9c-.043.238-.262,1.244-.677,2.988-.421,1.762-.677,2.982-.786,3.659a5.939,5.939,0,0,0,.152,3.189,2.352,2.352,0,0,0,2.335,1.244l24.475.793c.14-1.378-.683-5.152-2.372-11.3-1.561-6.061-2.3-9.219-2.287-9.335.006-.256,1.018-2.329,2.963-6.384,1.854-3.951,2.909-6.183,3.238-6.682.872,2.9,1.945,6.762,3.232,11.555.482,1.726,1.134,4.152,1.994,7.244a88.469,88.469,0,0,0,4.116,11.774c.939,1.768,1.945,2.524,3.036,2.414l4.1-.366,11.689-1.3c.183-.159.219-.646.061-1.518-.372-2.146-1.817-6.622-4.244-13.439-1.2-3.512-2.439-7.256-3.732-11.268-.848-.543-1.457-.945-1.835-1.189a8.968,8.968,0,0,1-2-1.579c1.006-3.061,1.86-5.738,2.579-7.872,1.3-4.177,2.177-6.42,2.726-6.481a16.49,16.49,0,0,1,.89,2.464,5.948,5.948,0,0,0,2.018,3.274c2.1,1.189,4.025,2.22,5.768,3.012,3.908,1.719,6.164,2.439,6.713,2.347l-5.707,12.39Q417.8,267.352,420.3,275.184Zm27.993,18.634-17.353-34.585c-.238-.768.116-3.53.9-8.4.591-4.03.988-6.591,1.268-7.671q3.275,5.9,5.317,9.719a200.327,200.327,0,0,1,9.86,20.335,28.28,28.28,0,0,1,2.3,13.335A24.526,24.526,0,0,1,448.289,293.818Zm16.975-52.639c-.262.9-.561,1.951-.933,3.025a25.3,25.3,0,0,1-6.164-.232,16.376,16.376,0,0,1-5.018-1.311c.592-2.738,1.043-4.793,1.427-6.226.244-.994.469-1.86.659-2.506a23.441,23.441,0,0,0,5.347,1.207c2.555.348,4.091.427,4.591.189.287-.128.634-1.134.976-3.043a13.872,13.872,0,0,1,.811-3.408l11.225.536a31.107,31.107,0,0,1,0,5.744c-.207,2.067-.475,3.238-.78,3.4a39.341,39.341,0,0,1-3.939.036c-4.359-.207-6.847-.415-7.524-.549A10.878,10.878,0,0,1,465.265,241.178Zm35.225,27.792c-.293.9-1.591,2.61-3.939,5.14-2.475,2.378-4.335,3.884-5.622,4.445a38.017,38.017,0,0,1-8.67,3.061c-3.86.537-6.4-.28-7.677-2.591a17.949,17.949,0,0,1-1.7-9.1c.037-1.524.293-5.116.671-10.64a51.505,51.505,0,0,1,.531-5.731c.146-1.116.579-3.518,1.213-7.286,2.146.372,3.762.573,4.951.786,3.884.567,6.9,1.043,9.024,1.518a15.612,15.612,0,0,1,5.329,2,16.632,16.632,0,0,1,3.744,3.274c.439.543.8,1.012,1.085,1.433.262.415.512.811.732,1.189a80.8,80.8,0,0,1,1.219,8.372A13.884,13.884,0,0,1,500.49,268.971Zm34.121,5.823c-3.128,1.988-8.994,3.848-17.36,5.628-8.36,1.384-12.884,1.439-13.591.464-.335-.464-.238-.817.311-1.1,2.421-.658,4.866-1.335,7.256-2.158a38.915,38.915,0,0,0,6.9-2.976c1.2-.7,2.744-2.475,4.725-5.079a36.555,36.555,0,0,0,4.817-9.079c.476-1.256,1.183-3.219,2.073-5.933,1.025-3.854.793-6.366-.671-7.646-1.165-1.012-4.6-1.634-10.372-2.14-1.866-.225-4.537-.378-8.128-.646-1.073-2.2-1.9-3.817-2.439-4.866-1.646-3.347-2.5-5.384-2.506-6.116,7.152.8,11.1,1.213,11.658,1.281A32.552,32.552,0,0,1,532.5,241.02a31.548,31.548,0,0,1,5.476,5.786c2.274,3.14,3.488,7.64,3.463,13.488C541.062,267.074,538.715,271.958,534.611,274.794Zm-18.683-55.249c-.683-.494-1.994-2.866-3.939-6.957-1.756-3.445-2.908-5.719-3.274-6.695,4.335,2.152,7.89,3.9,10.61,5.286a236.5,236.5,0,0,1,20.981,11.6c4.488,2.848,7.774,5.975,9.823,9.512a21.051,21.051,0,0,1,2.183,6.951Zm85.614-7.75c-6.1,6.03-9.8,8.8-11.146,8.4a10.942,10.942,0,0,1-2.469,9.488c-2.5,2.848-7.829,6.433-15.859,10.6-8.207,3.7-12.683,5.219-13.646,4.543-.86-.6-.976-1.14-.4-1.622,2.555-1.378,5.2-2.616,7.762-3.945a24.794,24.794,0,0,0,6.384-4.6c2.6-2.658,4.14-7.555,4.213-14.664-.311-7.018-1.951-11.024-4.89-12.256-1.439-.634-5.177-.354-11.042.811-1.921.274-4.726.793-8.341,1.537-1.707-1.732-3-3.012-3.86-3.811-2.652-2.683-4.067-4.311-4.28-4.975,7.451-1.128,11.524-1.835,12.085-1.915a36.449,36.449,0,0,1,17.085,1.933,28.553,28.553,0,0,1,7.165,3.939,27.649,27.649,0,0,1,8.555,10.225,20.613,20.613,0,0,1,1.494,4.445,87.819,87.819,0,0,1,5.085-7.75c3.451-5.348,5.323-9.287,5.8-11.616a31.963,31.963,0,0,0-.878-16.311c-1.86-5.116-4.64-7.994-8.012-8.634a10.619,10.619,0,0,0-2.244-.14c3.1,2.512,4.774,4.2,5.158,5.11.677,1.677.073,4.067-1.933,7.061a10.323,10.323,0,0,1-8.762,4.829,28.705,28.705,0,0,1-8.634-1.622c-2.659-1.147-5.628-3.762-8.75-7.567-3.652-4.091-4.762-6.988-3.427-8.981,1.244-1.689,4.665-3.043,10.481-4.049a45.261,45.261,0,0,1,15.884-.659A37.017,37.017,0,0,1,610,178.8c5.933,5.945,7.091,11.927,3.628,17.658A119.893,119.893,0,0,1,601.543,211.795Z" transform="translate(-87.533 -130.229)" fill="#009640"/>
      </g>
      <g id="Group_34" data-name="Group 34" transform="translate(276.642 713.415)">
        <path id="Path_3292" data-name="Path 3292" d="M79.756,146.346c1.122-.366,2.628-.878,4.8-1.61a11.859,11.859,0,0,0-2.579-1.14,23.553,23.553,0,0,1-3.817-1.811,21.143,21.143,0,0,1-3.122-2.683,5.783,5.783,0,0,0-2.817-1.768,23.81,23.81,0,0,0,.573,5.543,18.716,18.716,0,0,0,1.549,5.219A42.01,42.01,0,0,0,79.756,146.346Z" transform="translate(8.267 -94.012)" fill="#009640"/>
        <path id="Path_3293" data-name="Path 3293" d="M126.056,183.559a14.924,14.924,0,0,1-3.591,1.341,5.358,5.358,0,0,0-2.659,1.689,25.05,25.05,0,0,0,5.226,2.354,40.17,40.17,0,0,0,5.274,1.652,44.111,44.111,0,0,0,.482-5.969c.085-1.2.165-2.829.317-5.177a10.575,10.575,0,0,0-1.982,1.7A16.4,16.4,0,0,1,126.056,183.559Z" transform="translate(250.914 120.668)" fill="#009640"/>
        <path id="Path_3294" data-name="Path 3294" d="M86.615,157.888a22.034,22.034,0,0,0-2.3.061,3.233,3.233,0,0,0-1.658,3.555,7.756,7.756,0,0,0,2.036,4.079c.817,1.037,1.451,1.421,1.915,1.146a18.494,18.494,0,0,0,3.232-4.317c.793-1.653.75-2.75.171-3.494A5.417,5.417,0,0,0,86.615,157.888Z" transform="translate(61.315 10.7)" fill="#009640"/>
        <path id="Path_3295" data-name="Path 3295" d="M869.811,130.229c-40.3,150.894-177.942,259.124-341.555,259.124-163.034,0-300.294-109.035-341.135-259.124H59.007C102.47,349.671,296.046,514.247,528.256,514.247c231.185,0,424.054-166.052,468.663-384.018Zm28.908,27.8c9.256-.3,17.274-.244,24.073.213a36.084,36.084,0,0,1,13.488,3.2,24.248,24.248,0,0,1,5.969,4.28l-41.505.7c-.842-.079-3.244-1.36-7.226-3.811-3.384-2.036-5.585-3.378-6.616-4.1C891.707,158.259,895.658,158.1,898.719,158.027Zm-469.6,240.063a22.9,22.9,0,0,0,2.433-1.933,16.285,16.285,0,0,0,2.494,3.927c1.354,1.774,2.268,2.707,2.762,2.841.293.073,1.3-.488,3.061-1.884a24.305,24.305,0,0,1,3.1-2.116l6.287,7.128c-1.518,1.464-3.146,3.049-4.817,4.421-1.7,1.384-2.652,2.036-2.9,1.981a30.748,30.748,0,0,1-3.335-3.378c-2-2.177-2.982-3.36-3.018-3.427-.933.622-1.86,1.232-2.8,1.768a13.8,13.8,0,0,0-2.628,1.939,12.738,12.738,0,0,1-3.89-3.628,18.69,18.69,0,0,1-2.287-3.561C426.178,400.218,428.025,398.853,429.123,398.091ZM165.572,158.406a11.152,11.152,0,0,1,1.75-3.317c3.146,1.585,5.524,2.683,6.9,3.354,1.622.86,2.585,1.347,2.9,1.463a13.951,13.951,0,0,0-2.189,3.683c-.829,1.854-1.171,3.03-1.024,3.5.085.287,1.384.89,3.555,1.927a30.683,30.683,0,0,1,3.555,1.963l-2.774,8.128c-2.25-.762-4.579-1.579-6.732-2.543s-3.274-1.6-3.353-1.835a21.225,21.225,0,0,1,1.268-4.207,24.186,24.186,0,0,1,1.177-3.86c-1.079-.61-2.1-1.207-3.1-1.829a16.567,16.567,0,0,0-3.146-1.628A15.478,15.478,0,0,1,165.572,158.406ZM140.439,260.684a70.99,70.99,0,0,1-7.354-1.476c-2.414-.683-3.665-1.177-3.8-1.451a26.735,26.735,0,0,1,.53-5.091c.463-3.128.451-4.646.53-4.762-.25-.061-1.445-.536-3.646-1.4a28.074,28.074,0,0,0-3.543-1.366,23.712,23.712,0,0,1,.536-5.494,13.35,13.35,0,0,1,.9-4.415c3.835,1.049,6.287,1.878,7.646,2.4s2.427.927,3.2,1.2a15.827,15.827,0,0,0-1.537,4.7c-.4,2.268-.5,3.689.055,4.122a6.01,6.01,0,0,0,2.3,1.091c3.494,1.281,5.335,1.951,5.518,2.024Zm.585-29.6-.049.006-.366-.78-.421-.829.043-.006-5.171-11.414-.085.018-5-12.268-.1.024-3.89-9.823q-1.345-4.006,2.494-6.463c2.518-1.152,5.073-2.256,7.683-3.329-.64-.646-2.53-1.207-5.3-1.768-4.86-1.091-7.329-2.567-7.4-4.384a63.174,63.174,0,0,0-.915-8.963,61.733,61.733,0,0,0-.945-9.5c1.451-.1,4.884.415,10.28,1.592,5.4,1.1,9.043,2.219,10.945,3.439a57.891,57.891,0,0,1,5.738,4.585c2.817,2.274,5.841,4.9,9.25,7.762a5.148,5.148,0,0,0,1.921-.744,5.774,5.774,0,0,1,1.927-.719c1.854.6,3.341,1.037,4.475,1.342,4.116.994,7.4,1.853,10.134,2.506q-.906.659-9.256,3.293-8.36,2.652-16.6,5.421c-5.494,1.866-8.366,2.92-8.64,3.146a2.912,2.912,0,0,0-1.128,2.585c.256.89.61,2.268,1.274,4.049l.274.72,5.293,12.774.018-.012,6.457,13.939,11.42,21.8a43.241,43.241,0,0,0,5.018-4.451,33.948,33.948,0,0,0,5.323-6.2c1.317.232,3.591.506,6.841.762,2.158.158,4.573.348,7.4.427-1.4,1.939-2.646,3.488-3.61,4.573A34.443,34.443,0,0,1,178,251.678a21.31,21.31,0,0,1-3.756,1.762c-1.165.451-3.067,1.024-5.683,1.72a9.624,9.624,0,0,1-1.482.378c-.677.116-2.512.561-5.518,1.281a44.8,44.8,0,0,1-6.36,1.2Zm25.317,34.64c1.774-.579,4.311-1.384,7.573-2.445l11.719,17.737c1.549-.756,3.006-2.372,4.378-4.884a16.888,16.888,0,0,0,2.091-5.908c.1-.726.25-1.847.445-3.384a6.839,6.839,0,0,0-.183-2.683L207,261.508a13.657,13.657,0,0,1-.213,4.652,20,20,0,0,1-2.354,7.018,27.724,27.724,0,0,1-5.14,6.933,22.727,22.727,0,0,1-5.732,4.445,6.979,6.979,0,0,1-1.232.732c-.561.28-1.323.671-2.274,1.14a48.659,48.659,0,0,1-8.616,3.5c-3.488.976-5.658.732-6.585-.677l-14.177-21.872C161.048,267.349,162.932,266.812,166.341,265.727Zm213.448,152c-.61,1.6-1.5,3.933-2.61,6.994a39.16,39.16,0,0,1-3.189,5.079c-1.7,2.341-3.567,4.835-5.652,7.451a2.222,2.222,0,0,1-2.158.89,5.238,5.238,0,0,1-2.475-.714l-11.75-4.7.091-.171-11.482-5.073-.012.043-.659-.329-.963-.427.018-.037-10.853-5.348-.049.079-7.988-4.091.61-3.957-3.939,2.043-12.738-7.335a5.124,5.124,0,0,0,.012-.909c-.213-1.091-.421-1.853-.762-2.085-.207-.122-.786-.031-1.768.3-1.018.378-1.671.39-2.03.177l-13.378-8.536a19.2,19.2,0,0,0-.018-1.976c-.067-.634-.146-1-.311-1.122a6.1,6.1,0,0,1-1.622.591,4.2,4.2,0,0,1-3.006-.713l-7.494-5.25.122-.128-10.116-7.293-.061.1-10.616-8.518-.061.055L242.346,363.9l2.463-6.683c-1.421.5-2.659.835-3.835,1.146a31.793,31.793,0,0,1-4.091.884l-14.353-13.512.165-.134-8.9-8.878-.024.018-.366-.4-.878-.878.055-.043-7.774-8.555-.1.067-5.707-6.543a41.026,41.026,0,0,1-16.975.878c-6.683-.817-11.006-2.78-13.122-5.689-2.079-2.317-3.561-6.384-4.664-11.994-1.274-5.4-.969-8.61.579-9.353a.829.829,0,0,1,1.177.341,35.469,35.469,0,0,0,2.037,4.774,19.973,19.973,0,0,0,2.2,4.341,18.967,18.967,0,0,0,2.658,3.067,12.451,12.451,0,0,0,3.89,2.4,66.975,66.975,0,0,0,8.622,3.9,42.151,42.151,0,0,0,9.25,1.957,30.8,30.8,0,0,1-3.707-5.591c-2.384-5.433-1.841-9.061,1.994-11.189,2.445-1.348,7.366-2.659,14.433-3.75,8.6-1.488,13.969-1.079,16.1,1.384,1.433,1.768.866,4.494-1.671,8.231a43.617,43.617,0,0,1-9.957,10.47l2.384,2.847h0l10.524,11.451h0l9.835,9.707-.091.073,12.116,11.347a9.308,9.308,0,0,0,.622-4.457,6.839,6.839,0,0,0-2.384-5.049c-.683-.512-1.293-1.012-1.921-1.4-.622-.415-1.073-.714-1.378-.9a51.344,51.344,0,0,1,5.085-1.616c3.207-.963,5.89-1.793,7.854-2.274a5.594,5.594,0,0,1,2.829.171,19.43,19.43,0,0,1,8.347,4.134,10.672,10.672,0,0,1,3.841,9.628,10.123,10.123,0,0,1-2.762,6.909,12.18,12.18,0,0,1-5.067,2.354,28,28,0,0,0-4.549,1.591l3.555,2.872.037-.037,10.8,8.6.006-.018,12.646,9.049-.067.073,7.9,5.463a2.578,2.578,0,0,0,2.677-.427,17.177,17.177,0,0,0,2.165-2.342q3.933-1.957,5.963-2.841c4.061-1.847,6.53-2.7,7.53-2.634a53.743,53.743,0,0,1-7.86,7.152c-1.274,1.061-3.134,2.427-5.585,4.183l11.146,7.079a1.573,1.573,0,0,0,1.848-.049,7.374,7.374,0,0,0,1.811-1.835c.281-.378.585-.835.945-1.39a97.291,97.291,0,0,1,9.512-4.646,15.075,15.075,0,0,1,3.738-1.067,21.336,21.336,0,0,0-1.6,1.842q-.8,1.061-3.226,4.427a66.129,66.129,0,0,1-4.945,5.183c-.329.335-.768.8-1.317,1.4l7.463,4.146c.213.11.445-.049.738-.5a15.658,15.658,0,0,0,1.152-2.256,16.551,16.551,0,0,1,1.159-2.293c2.11-1.207,4.341-2.36,6.665-3.427,2.7-1.256,4.341-1.866,4.829-1.591l-5.219,9.159a5.789,5.789,0,0,0-.713,3.591c.091,1.311.463,2.128,1.067,2.463l1.3.707L347,415.81l12.878,5.652-.055.092,8.908,3.561c.226-.061.531-.512.927-1.317a128.947,128.947,0,0,0,4.908-13.792c1.2-3.634,2.482-7.506,3.774-11.536-.335-.86-.579-1.506-.713-1.921a9.182,9.182,0,0,1-.671-2.317q3.942-3.439,6.725-5.756c3.7-3.226,5.78-4.738,6.286-4.531a21.934,21.934,0,0,1-.793,2.579,5.975,5.975,0,0,0-.378,3.841,44.452,44.452,0,0,0,2.768,5.323c1.957,3.36,3.177,5.165,3.671,5.347l-12.177,8.1C382.886,409.523,381.788,412.4,379.788,417.73Zm27.7-10.506a227.052,227.052,0,0,1-7.11,22.42,40.356,40.356,0,0,1-7.347,12.5,32.54,32.54,0,0,1-6.116,5.03l10.8-38.255c.323-.793,2.476-3.11,6.3-6.774,3.207-3.1,5.286-5.049,6.256-5.829C409.166,400.8,408.239,404.45,407.489,407.225Zm100.474,80.883c-1.549,1.756-2.5,2.61-2.817,2.585a41.533,41.533,0,0,1-4.567-2.939c-2.213-1.683-3.6-2.811-4.189-3.268-1.219,1.085-2.341,2.085-3.4,3.036a8.171,8.171,0,0,0-1.732,1.8,25.116,25.116,0,0,1-4.963-3,16.657,16.657,0,0,1-3.634-3.482c3.152-3.292,5.2-5.378,6.14-6.116.329-.293.7-.683,1.134-1.146a37.463,37.463,0,0,0,3.823,3.494c1.969,1.585,3.268,2.427,3.89,2.482.3.03,1.25-.793,2.8-2.39a21.264,21.264,0,0,1,2.915-2.963l8.707,6.707A60.865,60.865,0,0,1,507.963,488.107Zm37.408-18.28-1.433.079v-.079l-12.543.031v.049l-14.067-.347v.079l-6.744-.183a7.4,7.4,0,0,1-6.293-4.164,16.086,16.086,0,0,1-1.378-4.872l-4.841,8.189-15.335-1.518-.006.061-14.25-1.726-.006.018-.415-.067-1.354-.153.006-.061L455.4,463.315l-.031.116-10.384-2.006c-2.744-.561-4.39-2.445-4.914-5.6q-.128-4.244-.128-8.591c-.866.384-2.061,1.524-3.6,3.579-2.817,3.848-5.067,5.268-6.719,4.378-2.36-1.274-5.2-2.482-8.4-4.134-4.628-2.159-7.6-3.494-8.939-3.908.445-1.372,2.22-4.171,5.274-8.488,3-4.244,5.439-7.067,7.225-8.134a35.37,35.37,0,0,1,6.244-2.512c3.091-1.158,6.6-2.549,10.469-4.024a6.2,6.2,0,0,0,.061-2.11,5.815,5.815,0,0,1,.055-2.116c1.225-1.3,2.183-2.409,2.915-3.226,2.421-2.939,4.445-5.475,6.073-7.524q.265,1.152-.512,10.012c-.476,5.908-.9,11.792-1.311,17.64-.366,5.872-.488,9.006-.4,9.347a3.676,3.676,0,0,0,1.969,2.3,16.035,16.035,0,0,0,4.134,1.28l.756.152,15.347,2.457h0l12.018,1.433.006-.024,19.341,1.8A14.964,14.964,0,0,0,502.963,451c.256-2.116.476-4.213.659-6.238a55.2,55.2,0,0,1,3.719-4.988c2.3-2.969,3.6-4.622,3.939-4.908a4.673,4.673,0,0,1,.049.689c-.03.64-.061,1.286-.085,1.872-.085,1.634-.226,3.482-.457,5.494-.232,2.036-.579,4.354-1.043,6.969a4.968,4.968,0,0,0,1.219,4.4,5.03,5.03,0,0,0,3.854,1.756l.848.049,13.829.323v-.006l15.542-.061v.018l20.622-1.159a45.162,45.162,0,0,0-1.75-4.9,26.452,26.452,0,0,0-6.293-9.152l4.658-13a23.448,23.448,0,0,1,4.159,5.232,54.739,54.739,0,0,1,4.975,9.317,14.317,14.317,0,0,1,.8,2.488c.213.866.4,2.012.585,3.4.171,1.311.286,2.415.348,3.3s.128,1.744.177,2.622c-.226,2.39-.482,5.024-.817,7.957q-.521,4.335-.811,5.756L545.749,469.8l.012.031h-.39Zm18.707,18.786c-2.549,2.335-4.152,3.488-4.78,3.53-.427.22-2.14-.878-5.037-3.055-2.89-2.226-4.335-3.524-4.354-3.939-.024-.518,1.2-2.14,3.677-4.823,2.439-2.732,3.878-4.079,4.354-4.3a41.042,41.042,0,0,1,4.951,3.86c3.183,2.579,4.8,4.042,4.829,4.372C567.8,484.851,566.578,486.3,564.078,488.614Zm155.388-60.225a5,5,0,0,1-2.171,1.317l-11.463,5.36-.116-.2-11.567,4.8.055.079-12.811,4.707.055.11-13.11,4.256-5.689-5.055c-.14,1.213-.25,2.482-.384,3.622a22.6,22.6,0,0,1-.738,3.732l-18.994,5.323-.073-.207-12.177,2.976.024.1-13.457,2.555.012.061-5.9,1.207c-1.012.086-1.787.116-2.286.116a6.587,6.587,0,0,1-3.409-1.037,50.894,50.894,0,0,1-3.707,13.756c-3.091,6.884-6.707,10.524-10.683,11.171-2.951.281-8.036-1.006-15.171-3.713-7.024-2.927-10.579-5.268-10.732-6.792-.061-.579.061-.884.372-.89,1.872.994,3.732,2.037,5.561,2.86a13.452,13.452,0,0,0,6.274,1.1,18.164,18.164,0,0,0,5.951-2.085A24.043,24.043,0,0,0,590.4,471.6c1.317-1.719,2.616-3.268,3.927-4.835,2.829-3.53,4.055-6.3,3.671-8.2-.268-1.3-1.744-3.286-4.476-6.1-1.311-1.4-2.683-2.762-4.067-4.14.774-2.616,1.536-5.183,2.262-7.61a38.6,38.6,0,0,1,1.482-4.5c2.329,2.793,4.695,5.549,7.134,8.433,3.5,3.786,6.988,5.335,10.421,4.585l.512-.079,13.567-2.579h0l15.122-3.683.049.128,15.945-4.445a12.593,12.593,0,0,0-4.2-2.707,8.5,8.5,0,0,0-5.97-.427,10.434,10.434,0,0,0-2.189.774c-.628.329-1.116.555-1.408.7a46.049,46.049,0,0,1,.311-4.994c.25-3.146.518-5.634.744-7.616-.049-.409.409-1.11,1.287-2.244a16.009,16.009,0,0,1,7.366-4.823c3.665-1.219,7.415-.628,11.274,1.64,3,1.683,4.982,3.61,5.921,5.707a10.356,10.356,0,0,1,.378,5.28,20.677,20.677,0,0,0-.232,4.488l4.348-1.488-.024-.061,12.969-4.732-.006-.024,14.353-5.939.1.159,8.738-3.933c.1-.183-.085-.677-.579-1.5-1.177-2.037-4.183-6.085-9.061-12.4-2.427-3.189-5.055-6.6-7.847-10.243-.976-.317-1.671-.573-2.134-.756a11.129,11.129,0,0,1-2.469-1.055c-.354-3.305-.64-6.116-.817-8.433-.427-4.488-.524-7.1-.024-7.335a18.083,18.083,0,0,1,1.793,2.244,7.148,7.148,0,0,0,3.14,2.726c2.414.7,4.591,1.232,6.518,1.652,4.171.738,6.524,1.043,7.006.841l-.646,13.683q.384.585,5.506,7.9c.994,1.433,2.524,3.549,4.524,6.323a40.414,40.414,0,0,1,2.421,5.512q1.528,4.079,3.006,8.78A1.887,1.887,0,0,1,719.466,428.389Zm-5.659-40.8c-.457-.732-1.14-3.762-1.951-8.908-.683-4.225-1.055-6.933-1.128-8.079,3.232,3.61,5.847,6.616,7.847,8.982q9.155,10.7,15.116,19.25a38.747,38.747,0,0,1,6.25,13.073,26.373,26.373,0,0,1,.524,7.536Zm31.451-28.811a37.8,37.8,0,0,1-5.1.3c-3.293-.037-4.951-.085-5.049-.11-.049,1.055-.134,2.091-.256,3.091a10.271,10.271,0,0,0,.152,3.354,21.931,21.931,0,0,1-5.9.2,25.78,25.78,0,0,1-4.6-.622c-.031-3.079-.031-5.207,0-6.475a21.5,21.5,0,0,0,.012-2.756,14.625,14.625,0,0,0,5.006.549c2.39.146,3.811.079,4.256-.165.268-.159.4-1.238.451-3.238a18.237,18.237,0,0,1,.219-3.409l10.427.024c.268,1.97.463,3.951.561,5.994S745.472,358.634,745.258,358.774ZM936.2,184.283a8.615,8.615,0,0,0-1.921,2.2,13.533,13.533,0,0,0-1.347,3.164c.226.269.037.793-.25,1.677a8.555,8.555,0,0,1-.646,1.579l-3.835,9.878.091.018-5.555,13.213.073.024-6.134,13.243.055.018-3.561,7.244c-.3.6.329,1.372,2.134,2.519q2.3,1.491,2.091,2.927l-23.061,14.6c.043.427.963,1.39,3.006,3,1.781,1.488,2,3.323.652,5.482l-3.073,5.079-.061-.024-7.421,12.25-.177-.085-6.8,10.3.091.061L874.2,301.22c-.159.628-.665.878-1.366.988a3.181,3.181,0,0,1-2.055-.457l-5.829-2.927c.463.61,1.433,1.963,2.9,4.122,1.457,2.177,2.268,3.366,2.421,3.6l-3.7,4.957.091.061L857.5,322.6l.049.024-9.091,10.39.085.086-6,6.524a21.1,21.1,0,0,0-3.823.128c-5.3.244-8.311.366-8.988.451.1.146.591,1.323,1.567,3.665A49.441,49.441,0,0,0,833.422,349l-13.8,13.231.091.092-10.9,9.293.043.055-10.384,8.3.1.061-8.445,6.4c-2.28,1.616-4.969,1.659-8.012.128-2.531-1.659-4.841-3.091-7.39-4.884-.335.72-.122,2.244.652,4.64,1.476,4.311,1.274,6.811-.591,7.469-2.469,1.067-5.555,2.152-9.024,3.445-4.8,2.128-7.933,3.293-9.165,4.006-.884-1.165-2.2-4.2-3.939-8.976-1.793-4.787-2.567-8.11-2.543-10.354a29.323,29.323,0,0,1,1.829-6.03c1.1-2.829,2.152-6.232,3.372-9.9a7.761,7.761,0,0,0-1.8-1.348,7.793,7.793,0,0,1-1.793-1.354c-.366-1.677-.646-3.03-.921-4.03-.89-3.427-1.665-6.347-2.433-8.823.652.128,3.439,2.341,8.238,6.317q7.244,5.936,14.482,11.78c4.847,3.823,7.469,5.86,7.823,6a5.313,5.313,0,0,0,3.421.122,16.159,16.159,0,0,0,3.7-2.372l.622-.445,10.847-8.585h-.024l10.555-8.92-.024-.018L822.4,340.39l-26.658-1c-1.579-1.744-3.3-3.811-5.177-6.225s-3.909-5.3-6.134-8.677l14.451-24.4,9.049,9.719a48.183,48.183,0,0,1-3.323,5.6c-4.853,7.853-7.762,12.451-8.463,13.933l37.7-.6,1.854-1.915h0l9.152-10.347v-.012l8.9-10.561h-.012l7.134-9.25-32.56-13.439c-1.3-2.244-2.335-3.951-3.085-5.146a79.708,79.708,0,0,1-4.067-7.1c.177-.518,6.591,2.122,19.14,7.737,12.585,5.543,19.969,8.841,22.128,9.975,2.006,1.067,3.457,1.037,4.311-.1l.482-.64,8.7-12.866.061.043,7.244-11.762.1.042,4.7-7.622c.207-.817-.128-1.6-1.189-2.488a25.354,25.354,0,0,1-4.6-4.72,15.692,15.692,0,0,1-2.744-8.445c-.476-3.542-.146-6.1.841-7.811a4.143,4.143,0,0,1,2.116-2.1,4.392,4.392,0,0,1,2.2.262c.311.116.848.262,1.628.488a11.875,11.875,0,0,0,2.384.36,32.118,32.118,0,0,0,8.03-1.049c3.439-.7,5.421-1.524,5.9-2.451l.439-.841,5.9-12.488H908.9l5.494-12.695-.055-.006,4.061-10.268c.024-.226-.555-.433-1.719-.634a147.427,147.427,0,0,0-15.25-.9c-3.939-.152-8.152-.317-12.64-.463-.939.518-1.628.884-2.079,1.116a8.384,8.384,0,0,1-2.6,1.073c-2.207-1.537-4.317-3.043-6.3-4.506-3.384-2.482-4.951-4.006-4.75-4.6a26.976,26.976,0,0,0,3.683.378,5.858,5.858,0,0,0,3.189-.659c2.628-1.945,5.177-3.622,7.335-5.146,2.555-1.823,3.933-3,4.14-3.482,1.756,1.75,3.091,3.085,3.969,3.969,2.683,2.732,4.311,4.372,4.866,4.884.451.061,3.61.329,9.469.756,1.738.146,4.3.311,7.658.549,1.427.092,3.659-1.329,6.677-4.256,3.018-2.957,5.134-4.463,7.1-4.238a19.051,19.051,0,0,1,7.14,2.4,21.459,21.459,0,0,1,4.317,3.353,20.29,20.29,0,0,1-3.232,1.457A9.255,9.255,0,0,0,936.2,184.283Z" transform="translate(-59.007 -130.229)" fill="#009640"/>
        <path id="Path_3296" data-name="Path 3296" d="M175.108,169.6a8.9,8.9,0,0,0,.177,2.445,13.832,13.832,0,0,1,.14,3.677,21.891,21.891,0,0,1-1.055,3.549,3.526,3.526,0,0,0-.372,2.817,26.91,26.91,0,0,0,5.451-2.317c2.329-1.146,3.963-2.037,4.945-2.652a49.109,49.109,0,0,0-4.884-4.024C178.51,172.3,177.047,171.121,175.108,169.6Z" transform="translate(526.417 70.448)" fill="#009640"/>
        <path id="Path_3297" data-name="Path 3297" d="M196.275,149.035c-1.256,2.354-1.561,4.152-1.092,5.3l3.3-1.89c1.372-.848,2.4-1.451,2.988-1.854,1.165-.738,1.7-1.226,1.628-1.506a13.239,13.239,0,0,0-3.75-.933C197.757,147.955,196.72,148.248,196.275,149.035Z" transform="translate(634.083 -39.158)" fill="#009640"/>
      </g>
    </g>
  </g>
</svg>
